<svg width="104" height="72" viewBox="0 0 104 72" fill="none" xmlns="http://www.w3.org/2000/svg">
<rect width="104" height="72" rx="6" fill="#E45E5E"/>
<path d="M42.92 50.72C41.1333 50.72 39.64 50.4133 38.44 49.8C37.24 49.16 36.28 48.32 35.56 47.28C34.84 46.24 34.2933 45.0933 33.92 43.84C33.5467 42.56 33.2933 41.2667 33.16 39.96C33.0533 38.6267 33 37.3733 33 36.2C33 35.1067 33.0533 33.92 33.16 32.64C33.2933 31.36 33.5333 30.0933 33.88 28.84C34.2533 27.5867 34.8 26.4533 35.52 25.44C36.24 24.4 37.2 23.5733 38.4 22.96C39.6 22.32 41.1067 22 42.92 22C44.7333 22 46.24 22.3067 47.44 22.92C48.64 23.5333 49.6 24.36 50.32 25.4C51.04 26.44 51.5733 27.5867 51.92 28.84C52.2933 30.0933 52.5333 31.36 52.64 32.64C52.7733 33.92 52.84 35.12 52.84 36.24C52.84 37.4133 52.7733 38.6667 52.64 40C52.5333 41.3067 52.2933 42.6 51.92 43.88C51.5467 45.1333 51 46.28 50.28 47.32C49.56 48.3333 48.6 49.16 47.4 49.8C46.2 50.4133 44.7067 50.72 42.92 50.72ZM42.92 45.44C44.1467 45.44 45.0667 45.0267 45.68 44.2C46.2933 43.3733 46.6933 42.2667 46.88 40.88C47.0933 39.4933 47.2 38 47.2 36.4C47.2 34.72 47.0933 33.1867 46.88 31.8C46.6933 30.4133 46.2933 29.32 45.68 28.52C45.0667 27.6933 44.1467 27.28 42.92 27.28C41.9867 27.28 41.2267 27.52 40.64 28C40.08 28.48 39.6533 29.1467 39.36 30C39.0933 30.8267 38.9067 31.8 38.8 32.92C38.6933 34.0133 38.64 35.1733 38.64 36.4C38.64 37.5733 38.6933 38.7067 38.8 39.8C38.9067 40.8933 39.0933 41.8667 39.36 42.72C39.6533 43.5467 40.08 44.2133 40.64 44.72C41.2267 45.2 41.9867 45.44 42.92 45.44Z" fill="white"/>
<path d="M64.7028 50.32V28.4L66.2628 31.12H57.5828V26.76H61.7428C62.7028 26.76 63.4361 26.5467 63.9428 26.12C64.4495 25.6933 64.7028 24.9467 64.7028 23.88V22.44H70.1828V50.32H64.7028Z" fill="white"/>
</svg>
