<svg width="80" height="81" viewBox="0 0 80 81" fill="none" xmlns="http://www.w3.org/2000/svg">
<rect y="0.5" width="80" height="80" rx="40" fill="#DD3636"/>
<path fill-rule="evenodd" clip-rule="evenodd" d="M28 28C28 25.7909 29.7909 24 32 24H41.1716C42.2324 24 43.2499 24.4214 44 25.1716L50.8284 32C51.5786 32.7501 52 33.7676 52 34.8284V52C52 54.2091 50.2091 56 48 56H32C29.7909 56 28 54.2091 28 52V28ZM32 40C32 38.8954 32.8954 38 34 38H46C47.1046 38 48 38.8954 48 40C48 41.1046 47.1046 42 46 42H34C32.8954 42 32 41.1046 32 40ZM34 46C32.8954 46 32 46.8954 32 48C32 49.1046 32.8954 50 34 50H46C47.1046 50 48 49.1046 48 48C48 46.8954 47.1046 46 46 46H34Z" fill="white"/>
</svg>
