<svg width="40" height="40" viewBox="0 0 40 40" fill="none" xmlns="http://www.w3.org/2000/svg">
<path d="M24.6957 11C25.4783 11 26.2087 11.3087 26.887 11.9262C27.5391 12.5705 28.0609 13.4027 28.4522 14.4228C28.8174 15.443 29 16.5302 29 17.6846C29 19.4564 28.7 21.1208 28.1 22.6779C27.4739 24.2617 26.7174 25.5906 25.8304 26.6644C24.9435 27.7651 24.0957 28.5436 23.287 29L23.2478 29L21.8783 27.7114L21.8783 27.1477C22.5304 26.5302 23.1435 25.6443 23.7174 24.4899C24.2913 23.3624 24.5783 21.9664 24.5783 20.302C24.5783 19.443 24.4609 18.745 24.2261 18.2081C23.9913 17.6711 23.6391 17.0805 23.1696 16.4362C22.7783 15.9262 22.4913 15.4832 22.3087 15.1074C22.1261 14.7315 22.0348 14.2752 22.0348 13.7383C22.0348 12.9329 22.2957 12.2752 22.8174 11.7651C23.313 11.255 23.9391 11 24.6957 11ZM13.8174 11C14.6 11 15.3174 11.3087 15.9696 11.9262C16.6217 12.5705 17.1435 13.4027 17.5348 14.4228C17.9 15.443 18.0826 16.5302 18.0826 17.6846C18.0826 19.4564 17.7826 21.1208 17.1826 22.6779C16.5565 24.2617 15.8 25.604 14.913 26.7047C14.0261 27.8054 13.1783 28.5705 12.3696 29L12.3304 29L11 27.7114L11 27.1476C11.6522 26.5302 12.2652 25.6443 12.8391 24.4899C13.413 23.3624 13.7 21.9664 13.7 20.302C13.7 19.443 13.5826 18.745 13.3478 18.2081C13.113 17.6711 12.7609 17.0805 12.2913 16.4362C11.9 15.9262 11.613 15.4832 11.4304 15.1074C11.2478 14.7315 11.1565 14.2752 11.1565 13.7383C11.1565 12.9329 11.4174 12.2752 11.9391 11.7651C12.4348 11.255 13.0609 11 13.8174 11Z" fill="black"/>
<rect x="0.5" y="0.5" width="39" height="39" rx="19.5" stroke="#404A5C"/>
</svg>
