<svg width="40" height="40" viewBox="0 0 40 40" fill="none" xmlns="http://www.w3.org/2000/svg">
<path d="M16.25 6.66671V36.6667H23.75V6.66671C23.75 4.83337 23 3.33337 20.75 3.33337H19.25C17 3.33337 16.25 4.83337 16.25 6.66671Z" fill="#DD3636"/>
<path d="M5 16.6667V36.6667H11.6667V16.6667C11.6667 14.8334 11 13.3334 9 13.3334H7.66667C5.66667 13.3334 5 14.8334 5 16.6667Z" fill="#EFA4A4"/>
<path d="M28.334 25V36.6666H35.0007V25C35.0007 23.1666 34.334 21.6666 32.334 21.6666H31.0007C29.0007 21.6666 28.334 23.1666 28.334 25Z" fill="#EFA4A4"/>
<path d="M36.6673 36.6666H3.33398C2.65065 36.6666 2.08398 36.1 2.08398 35.4166C2.08398 34.7333 2.65065 34.1666 3.33398 34.1666H36.6673C37.3506 34.1666 37.9173 34.7333 37.9173 35.4166C37.9173 36.1 37.3506 36.6666 36.6673 36.6666Z" fill="#DD3636"/>
</svg>
