<svg width="26" height="27" viewBox="0 0 26 27" fill="none" xmlns="http://www.w3.org/2000/svg">
<path d="M19.6667 6.66668H22.3333C23.8061 6.66668 25 7.86058 25 9.33334V17.3333C25 18.8061 23.8061 20 22.3333 20H19.6667V25.3333L14.3333 20H9C8.26362 20 7.59695 19.7015 7.11438 19.219M7.11438 19.219L11.6667 14.6667H17C18.4728 14.6667 19.6667 13.4728 19.6667 12V4.00001C19.6667 2.52725 18.4728 1.33334 17 1.33334H3.66667C2.19391 1.33334 1 2.52725 1 4.00001V12C1 13.4728 2.19391 14.6667 3.66667 14.6667H6.33333V20L7.11438 19.219Z" stroke="#DD3636" stroke-width="2" stroke-linecap="round" stroke-linejoin="round"/>
</svg>
