<svg width="32" height="32" viewBox="0 0 32 32" fill="none" xmlns="http://www.w3.org/2000/svg">
<path d="M15.9993 29.3334C23.3631 29.3334 29.3327 23.3639 29.3327 16.0001C29.3327 8.63628 23.3631 2.66675 15.9993 2.66675C8.63555 2.66675 2.66602 8.63628 2.66602 16.0001C2.66602 23.3639 8.63555 29.3334 15.9993 29.3334Z" fill="#DD3636"/>
<path d="M14.1059 20.7732C13.8393 20.7732 13.5859 20.6666 13.3993 20.4799L9.62594 16.7066C9.23927 16.3199 9.23927 15.6799 9.62594 15.2932C10.0126 14.9066 10.6526 14.9066 11.0393 15.2932L14.1059 18.3599L20.9593 11.5066C21.3459 11.1199 21.9859 11.1199 22.3726 11.5066C22.7593 11.8932 22.7593 12.5332 22.3726 12.9199L14.8126 20.4799C14.6259 20.6666 14.3726 20.7732 14.1059 20.7732Z" fill="#FCF7F7"/>
</svg>
