<svg width="20" height="21" viewBox="0 0 20 21" fill="none" xmlns="http://www.w3.org/2000/svg">
<path d="M15.34 4.19535C15.1027 4.19535 14.8707 4.26573 14.6733 4.39759C14.476 4.52945 14.3222 4.71686 14.2313 4.93613C14.1405 5.1554 14.1168 5.39668 14.1631 5.62946C14.2094 5.86224 14.3236 6.07606 14.4915 6.24388C14.6593 6.4117 14.8731 6.52599 15.1059 6.57229C15.3387 6.6186 15.5799 6.59483 15.7992 6.50401C16.0185 6.41318 16.2059 6.25938 16.3378 6.06204C16.4696 5.8647 16.54 5.63269 16.54 5.39535C16.54 5.07709 16.4136 4.77187 16.1885 4.54682C15.9635 4.32178 15.6583 4.19535 15.34 4.19535ZM19.94 6.61535C19.9206 5.78565 19.7652 4.96475 19.48 4.18535C19.2257 3.51848 18.83 2.91463 18.32 2.41535C17.8248 1.90278 17.2196 1.50953 16.55 1.26535C15.7727 0.971512 14.9508 0.812562 14.12 0.795352C13.06 0.735352 12.72 0.735352 10 0.735352C7.28 0.735352 6.94 0.735352 5.88 0.795352C5.04915 0.812562 4.22734 0.971512 3.45 1.26535C2.78168 1.512 2.17693 1.90491 1.68 2.41535C1.16743 2.91053 0.774176 3.51579 0.53 4.18535C0.236161 4.96269 0.07721 5.7845 0.0599999 6.61535C-5.58794e-08 7.67535 0 8.01535 0 10.7354C0 13.4554 -5.58794e-08 13.7954 0.0599999 14.8554C0.07721 15.6862 0.236161 16.508 0.53 17.2854C0.774176 17.9549 1.16743 18.5602 1.68 19.0554C2.17693 19.5658 2.78168 19.9587 3.45 20.2054C4.22734 20.4992 5.04915 20.6581 5.88 20.6754C6.94 20.7354 7.28 20.7354 10 20.7354C12.72 20.7354 13.06 20.7354 14.12 20.6754C14.9508 20.6581 15.7727 20.4992 16.55 20.2054C17.2196 19.9612 17.8248 19.5679 18.32 19.0554C18.8322 18.5579 19.2283 17.9535 19.48 17.2854C19.7652 16.5059 19.9206 15.6851 19.94 14.8554C19.94 13.7954 20 13.4554 20 10.7354C20 8.01535 20 7.67535 19.94 6.61535ZM18.14 14.7354C18.1327 15.3701 18.0178 15.9991 17.8 16.5954C17.6403 17.0305 17.3839 17.4238 17.05 17.7454C16.7256 18.0759 16.3332 18.3318 15.9 18.4954C15.3037 18.7131 14.6748 18.8281 14.04 18.8354C13.04 18.8854 12.67 18.8954 10.04 18.8954C7.41 18.8954 7.04 18.8954 6.04 18.8354C5.38089 18.8477 4.72459 18.7462 4.1 18.5354C3.68578 18.3634 3.31136 18.1081 3 17.7854C2.66809 17.4641 2.41484 17.0705 2.26 16.6354C2.01586 16.0305 1.88044 15.3873 1.86 14.7354C1.86 13.7354 1.8 13.3654 1.8 10.7354C1.8 8.10535 1.8 7.73535 1.86 6.73535C1.86448 6.08641 1.98295 5.4433 2.21 4.83535C2.38605 4.41326 2.65627 4.03701 3 3.73535C3.30381 3.39152 3.67929 3.11845 4.1 2.93535C4.70955 2.7154 5.352 2.60043 6 2.59535C7 2.59535 7.37 2.53535 10 2.53535C12.63 2.53535 13 2.53535 14 2.59535C14.6348 2.60263 15.2637 2.7176 15.86 2.93535C16.3144 3.104 16.7223 3.3782 17.05 3.73535C17.3777 4.04253 17.6338 4.41808 17.8 4.83535C18.0223 5.44429 18.1373 6.08713 18.14 6.73535C18.19 7.73535 18.2 8.10535 18.2 10.7354C18.2 13.3654 18.19 13.7354 18.14 14.7354ZM10 5.60535C8.98581 5.60733 7.99496 5.90988 7.15265 6.47477C6.31035 7.03966 5.65438 7.84155 5.26763 8.77911C4.88089 9.71666 4.78072 10.7478 4.97979 11.7423C5.17886 12.7367 5.66824 13.6499 6.38608 14.3663C7.10392 15.0828 8.01801 15.5704 9.01286 15.7675C10.0077 15.9646 11.0387 15.8625 11.9755 15.4739C12.9123 15.0853 13.7129 14.4278 14.2761 13.5844C14.8394 12.741 15.14 11.7495 15.14 10.7354C15.1413 10.0605 15.0092 9.39196 14.7512 8.76831C14.4933 8.14466 14.1146 7.57816 13.6369 7.1014C13.1592 6.62464 12.5919 6.24703 11.9678 5.99028C11.3436 5.73353 10.6749 5.60271 10 5.60535ZM10 14.0654C9.34139 14.0654 8.69757 13.8701 8.14995 13.5041C7.60234 13.1382 7.17552 12.6182 6.92348 12.0097C6.67144 11.4012 6.6055 10.7317 6.73398 10.0857C6.86247 9.43974 7.17963 8.84639 7.64533 8.38069C8.11104 7.91498 8.70439 7.59783 9.35035 7.46934C9.99631 7.34085 10.6659 7.40679 11.2743 7.65883C11.8828 7.91087 12.4029 8.33769 12.7688 8.8853C13.1347 9.43292 13.33 10.0767 13.33 10.7354C13.33 11.1727 13.2439 11.6057 13.0765 12.0097C12.9092 12.4137 12.6639 12.7808 12.3547 13.09C12.0454 13.3992 11.6784 13.6445 11.2743 13.8119C10.8703 13.9792 10.4373 14.0654 10 14.0654Z" fill="#ED017F"/>
</svg>
