<svg width="20" height="21" viewBox="0 0 20 21" fill="none" xmlns="http://www.w3.org/2000/svg">
<path d="M18.4686 0.735491H1.52859C1.33817 0.732847 1.14909 0.767739 0.972159 0.838175C0.795224 0.908611 0.633897 1.01321 0.497391 1.146C0.360885 1.27879 0.251875 1.43718 0.176586 1.6121C0.101296 1.78703 0.0612021 1.97507 0.0585938 2.16549V19.3055C0.0612021 19.4959 0.101296 19.684 0.176586 19.8589C0.251875 20.0338 0.360885 20.1922 0.497391 20.325C0.633897 20.4578 0.795224 20.5624 0.972159 20.6328C1.14909 20.7032 1.33817 20.7381 1.52859 20.7355H18.4686C18.659 20.7381 18.8481 20.7032 19.025 20.6328C19.202 20.5624 19.3633 20.4578 19.4998 20.325C19.6363 20.1922 19.7453 20.0338 19.8206 19.8589C19.8959 19.684 19.936 19.4959 19.9386 19.3055V2.16549C19.936 1.97507 19.8959 1.78703 19.8206 1.6121C19.7453 1.43718 19.6363 1.27879 19.4998 1.146C19.3633 1.01321 19.202 0.908611 19.025 0.838175C18.8481 0.767739 18.659 0.732847 18.4686 0.735491ZM6.08859 17.4755H3.08859V8.47549H6.08859V17.4755ZM4.58859 7.21549C4.17486 7.21549 3.77806 7.05113 3.48551 6.75858C3.19295 6.46602 3.02859 6.06923 3.02859 5.65549C3.02859 5.24175 3.19295 4.84496 3.48551 4.5524C3.77806 4.25985 4.17486 4.09549 4.58859 4.09549C4.80829 4.07058 5.03077 4.09235 5.24147 4.15937C5.45217 4.2264 5.64633 4.33718 5.81125 4.48445C5.97617 4.63173 6.10812 4.81217 6.19846 5.01397C6.28881 5.21578 6.33551 5.43439 6.33551 5.65549C6.33551 5.8766 6.28881 6.09521 6.19846 6.29701C6.10812 6.49881 5.97617 6.67926 5.81125 6.82653C5.64633 6.9738 5.45217 7.08458 5.24147 7.15161C5.03077 7.21864 4.80829 7.24041 4.58859 7.21549ZM16.9086 17.4755H13.9086V12.6455C13.9086 11.4355 13.4786 10.6455 12.3886 10.6455C12.0513 10.648 11.7228 10.7538 11.4474 10.9487C11.1721 11.1436 10.9631 11.4182 10.8486 11.7355C10.7703 11.9705 10.7364 12.2181 10.7486 12.4655V17.4655H7.74859C7.74859 17.4655 7.74859 9.28549 7.74859 8.46549H10.7486V9.73549C11.0211 9.2626 11.4175 8.87301 11.895 8.60869C12.3726 8.34438 12.9132 8.21534 13.4586 8.23549C15.4586 8.23549 16.9086 9.52549 16.9086 12.2955V17.4755Z" fill="#4A71FB"/>
</svg>
