<svg width="117" height="40" viewBox="0 0 117 40" fill="none" xmlns="http://www.w3.org/2000/svg">
<g clip-path="url(#clip0_1667_2407)">
<path d="M52.46 17.32C51.14 17.32 49.9733 17.0133 48.96 16.4C47.96 15.7867 47.18 14.9333 46.62 13.84C46.06 12.7467 45.78 11.4733 45.78 10.02C45.78 8.56667 46.06 7.3 46.62 6.22C47.18 5.12667 47.96 4.27333 48.96 3.66C49.9733 3.04667 51.14 2.74 52.46 2.74C53.94 2.74 55.2133 3.11333 56.28 3.86C57.36 4.59333 58.1333 5.60667 58.6 6.9L56.16 7.8C55.8667 6.98667 55.4 6.35333 54.76 5.9C54.1333 5.44667 53.3667 5.22 52.46 5.22C51.6333 5.22 50.9067 5.41333 50.28 5.8C49.6667 6.18667 49.1933 6.74 48.86 7.46C48.54 8.16667 48.38 9.02 48.38 10.02C48.38 11.02 48.54 11.88 48.86 12.6C49.1933 13.32 49.6667 13.8733 50.28 14.26C50.9067 14.6467 51.6333 14.84 52.46 14.84C53.3667 14.84 54.1333 14.6133 54.76 14.16C55.4 13.7067 55.8667 13.0733 56.16 12.26L58.6 13.14C58.1333 14.4333 57.36 15.4533 56.28 16.2C55.2133 16.9467 53.94 17.32 52.46 17.32ZM60.3797 17V7.14H62.8597V17H60.3797ZM60.2997 5.62V3.06H62.9597V5.62H60.2997ZM65.302 17V7.14H67.802V9.82L67.422 9.86C67.462 9.28667 67.6354 8.78 67.942 8.34C68.2487 7.9 68.622 7.56 69.062 7.32C69.5154 7.06667 69.9754 6.94 70.442 6.94C70.7754 6.94 71.0887 6.98667 71.382 7.08C71.6887 7.16 72.002 7.3 72.322 7.5L71.122 9.74C70.9754 9.66 70.7887 9.58667 70.562 9.52C70.3354 9.45333 70.1087 9.42 69.882 9.42C69.6154 9.42 69.3554 9.46667 69.102 9.56C68.862 9.65333 68.642 9.8 68.442 10C68.2554 10.2 68.102 10.4667 67.982 10.8C67.9287 10.9867 67.882 11.2267 67.842 11.52C67.8154 11.8 67.802 12.2133 67.802 12.76V17H65.302ZM77.6303 17.2C76.8303 17.2 76.1303 17.06 75.5303 16.78C74.9436 16.4867 74.4436 16.1 74.0303 15.62C73.6303 15.14 73.3303 14.5933 73.1303 13.98C72.9303 13.3667 72.8303 12.7267 72.8303 12.06C72.8303 11.4067 72.9303 10.7733 73.1303 10.16C73.3303 9.54667 73.6303 9 74.0303 8.52C74.4436 8.04 74.9436 7.66 75.5303 7.38C76.1303 7.08667 76.8303 6.94 77.6303 6.94C78.6303 6.94 79.497 7.18 80.2303 7.66C80.9636 8.14 81.5103 8.86667 81.8703 9.84L79.7103 10.7C79.5503 10.2333 79.3036 9.85333 78.9703 9.56C78.6503 9.25333 78.2036 9.1 77.6303 9.1C77.097 9.1 76.657 9.24667 76.3103 9.54C75.9636 9.82 75.7103 10.1867 75.5503 10.64C75.3903 11.0933 75.3103 11.5667 75.3103 12.06C75.3103 12.5533 75.3903 13.0333 75.5503 13.5C75.7103 13.9533 75.9636 14.3267 76.3103 14.62C76.657 14.9 77.097 15.04 77.6303 15.04C78.2036 15.04 78.6503 14.8933 78.9703 14.6C79.3036 14.2933 79.5503 13.9 79.7103 13.42L81.8703 14.28C81.5103 15.2667 80.9636 16 80.2303 16.48C79.497 16.96 78.6303 17.2 77.6303 17.2ZM86.0395 17.2C85.3595 17.2 84.7995 16.9933 84.3595 16.58C83.9195 16.1667 83.6995 15.5133 83.6995 14.62V3.06H86.1595V14.14C86.1595 14.42 86.2262 14.62 86.3595 14.74C86.4929 14.8467 86.6662 14.9 86.8795 14.9C86.9862 14.9 87.0995 14.8933 87.2195 14.88C87.3395 14.8533 87.4662 14.82 87.5995 14.78V16.9C87.3195 17.0067 87.0395 17.08 86.7595 17.12C86.4929 17.1733 86.2529 17.2 86.0395 17.2ZM93.7059 17.2C92.8526 17.2 92.1193 17.06 91.5059 16.78C90.8926 16.5 90.3859 16.1267 89.9859 15.66C89.5993 15.18 89.3126 14.64 89.1259 14.04C88.9393 13.4267 88.8459 12.7867 88.8459 12.12C88.8459 11.48 88.9393 10.8533 89.1259 10.24C89.3126 9.62667 89.5926 9.07333 89.9659 8.58C90.3393 8.08667 90.8193 7.69333 91.4059 7.4C92.0059 7.09333 92.7193 6.94 93.5459 6.94C94.3193 6.94 94.9926 7.07333 95.5659 7.34C96.1393 7.59333 96.6126 7.95333 96.9859 8.42C97.3593 8.87333 97.6393 9.40667 97.8259 10.02C98.0259 10.6333 98.1259 11.2867 98.1259 11.98C98.1259 12.0733 98.1193 12.2067 98.1059 12.38C98.1059 12.54 98.0926 12.7133 98.0659 12.9H91.3259C91.3926 13.6067 91.6526 14.14 92.1059 14.5C92.5726 14.86 93.1526 15.04 93.8459 15.04C94.3526 15.04 94.8459 14.9533 95.3259 14.78C95.8059 14.5933 96.2326 14.3333 96.6059 14L97.8459 15.68C97.3793 16.04 96.9393 16.3333 96.5259 16.56C96.1126 16.7867 95.6793 16.9467 95.2259 17.04C94.7859 17.1467 94.2793 17.2 93.7059 17.2ZM95.6659 11.66C95.6926 11.5533 95.7126 11.4467 95.7259 11.34C95.7526 11.2333 95.7659 11.1333 95.7659 11.04C95.7659 10.76 95.7126 10.5 95.6059 10.26C95.4993 10.0067 95.3526 9.78667 95.1659 9.6C94.9793 9.41333 94.7526 9.27333 94.4859 9.18C94.2326 9.07333 93.9393 9.02 93.6059 9.02C93.1126 9.02 92.6993 9.12 92.3659 9.32C92.0326 9.52 91.7793 9.78 91.6059 10.1C91.4459 10.4067 91.3459 10.7267 91.3059 11.06H96.5059L95.6659 11.66ZM46.34 37V23.06H55.66V25.38H48.92V28.7H54.78V31H48.92V37H46.34ZM57.3523 37V27.14H59.8323V37H57.3523ZM57.2723 25.62V23.06H59.9323V25.62H57.2723ZM62.2747 37V27.14H64.7747V29.38L64.3747 29.42C64.548 28.82 64.8014 28.34 65.1347 27.98C65.468 27.62 65.8547 27.36 66.2947 27.2C66.7347 27.0267 67.188 26.94 67.6547 26.94C68.7747 26.94 69.648 27.26 70.2747 27.9C70.9147 28.5267 71.2347 29.4133 71.2347 30.56V37H68.7347V31.48C68.7347 30.6533 68.588 30.0533 68.2947 29.68C68.0014 29.2933 67.5414 29.1 66.9147 29.1C66.4347 29.1 66.0347 29.2133 65.7147 29.44C65.408 29.6533 65.1747 29.9933 65.0147 30.46C64.8547 30.9267 64.7747 31.5333 64.7747 32.28V37H62.2747ZM79.8838 37L79.6838 35.52V30.78C79.6838 30.1933 79.4971 29.76 79.1238 29.48C78.7638 29.1867 78.2704 29.04 77.6438 29.04C77.1238 29.04 76.5904 29.1467 76.0438 29.36C75.5104 29.56 75.0371 29.8467 74.6238 30.22L73.3638 28.52C74.0571 27.96 74.7638 27.56 75.4838 27.32C76.2171 27.0667 77.0038 26.94 77.8438 26.94C79.2038 26.94 80.2638 27.28 81.0238 27.96C81.7838 28.64 82.1638 29.58 82.1638 30.78V37H79.8838ZM76.9038 37.2C76.1838 37.2 75.5371 37.0667 74.9638 36.8C74.4038 36.5333 73.9571 36.1533 73.6238 35.66C73.3038 35.1667 73.1438 34.6 73.1438 33.96C73.1438 33.3867 73.2571 32.9 73.4838 32.5C73.7238 32.0867 74.0371 31.7733 74.4238 31.56C74.7571 31.36 75.1238 31.22 75.5238 31.14C75.9371 31.06 76.3771 31.02 76.8438 31.02H79.9038V32.86H77.2038C76.9904 32.86 76.7771 32.88 76.5638 32.92C76.3638 32.9467 76.1904 33.02 76.0438 33.14C75.9104 33.2333 75.8104 33.3533 75.7438 33.5C75.6771 33.6333 75.6438 33.7867 75.6438 33.96C75.6438 34.3333 75.7904 34.6333 76.0838 34.86C76.3771 35.0867 76.7704 35.2 77.2638 35.2C77.7038 35.2 78.1038 35.1067 78.4638 34.92C78.8371 34.72 79.1304 34.4533 79.3438 34.12C79.5704 33.7733 79.6838 33.38 79.6838 32.94L80.3438 34.26C80.1704 34.9533 79.9038 35.52 79.5438 35.96C79.1971 36.3867 78.7971 36.7 78.3438 36.9C77.8904 37.1 77.4104 37.2 76.9038 37.2ZM84.4817 37V27.14H86.9817V29.38L86.5817 29.42C86.7551 28.82 87.0084 28.34 87.3417 27.98C87.6751 27.62 88.0617 27.36 88.5017 27.2C88.9417 27.0267 89.3951 26.94 89.8617 26.94C90.9817 26.94 91.8551 27.26 92.4817 27.9C93.1217 28.5267 93.4417 29.4133 93.4417 30.56V37H90.9417V31.48C90.9417 30.6533 90.7951 30.0533 90.5017 29.68C90.2084 29.2933 89.7484 29.1 89.1217 29.1C88.6417 29.1 88.2417 29.2133 87.9217 29.44C87.6151 29.6533 87.3817 29.9933 87.2217 30.46C87.0617 30.9267 86.9817 31.5333 86.9817 32.28V37H84.4817ZM100.111 37.2C99.3108 37.2 98.6108 37.06 98.0108 36.78C97.4241 36.4867 96.9241 36.1 96.5108 35.62C96.1108 35.14 95.8108 34.5933 95.6108 33.98C95.4108 33.3667 95.3108 32.7267 95.3108 32.06C95.3108 31.4067 95.4108 30.7733 95.6108 30.16C95.8108 29.5467 96.1108 29 96.5108 28.52C96.9241 28.04 97.4241 27.66 98.0108 27.38C98.6108 27.0867 99.3108 26.94 100.111 26.94C101.111 26.94 101.977 27.18 102.711 27.66C103.444 28.14 103.991 28.8667 104.351 29.84L102.191 30.7C102.031 30.2333 101.784 29.8533 101.451 29.56C101.131 29.2533 100.684 29.1 100.111 29.1C99.5774 29.1 99.1374 29.2467 98.7908 29.54C98.4441 29.82 98.1908 30.1867 98.0308 30.64C97.8708 31.0933 97.7908 31.5667 97.7908 32.06C97.7908 32.5533 97.8708 33.0333 98.0308 33.5C98.1908 33.9533 98.4441 34.3267 98.7908 34.62C99.1374 34.9 99.5774 35.04 100.111 35.04C100.684 35.04 101.131 34.8933 101.451 34.6C101.784 34.2933 102.031 33.9 102.191 33.42L104.351 34.28C103.991 35.2667 103.444 36 102.711 36.48C101.977 36.96 101.111 37.2 100.111 37.2ZM110.62 37.2C109.767 37.2 109.033 37.06 108.42 36.78C107.807 36.5 107.3 36.1267 106.9 35.66C106.513 35.18 106.227 34.64 106.04 34.04C105.853 33.4267 105.76 32.7867 105.76 32.12C105.76 31.48 105.853 30.8533 106.04 30.24C106.227 29.6267 106.507 29.0733 106.88 28.58C107.253 28.0867 107.733 27.6933 108.32 27.4C108.92 27.0933 109.633 26.94 110.46 26.94C111.233 26.94 111.907 27.0733 112.48 27.34C113.053 27.5933 113.527 27.9533 113.9 28.42C114.273 28.8733 114.553 29.4067 114.74 30.02C114.94 30.6333 115.04 31.2867 115.04 31.98C115.04 32.0733 115.033 32.2067 115.02 32.38C115.02 32.54 115.007 32.7133 114.98 32.9H108.24C108.307 33.6067 108.567 34.14 109.02 34.5C109.487 34.86 110.067 35.04 110.76 35.04C111.267 35.04 111.76 34.9533 112.24 34.78C112.72 34.5933 113.147 34.3333 113.52 34L114.76 35.68C114.293 36.04 113.853 36.3333 113.44 36.56C113.027 36.7867 112.593 36.9467 112.14 37.04C111.7 37.1467 111.193 37.2 110.62 37.2ZM112.58 31.66C112.607 31.5533 112.627 31.4467 112.64 31.34C112.667 31.2333 112.68 31.1333 112.68 31.04C112.68 30.76 112.627 30.5 112.52 30.26C112.413 30.0067 112.267 29.7867 112.08 29.6C111.893 29.4133 111.667 29.2733 111.4 29.18C111.147 29.0733 110.853 29.02 110.52 29.02C110.027 29.02 109.613 29.12 109.28 29.32C108.947 29.52 108.693 29.78 108.52 30.1C108.36 30.4067 108.26 30.7267 108.22 31.06H113.42L112.58 31.66Z" fill="#323740"/>
<path fill-rule="evenodd" clip-rule="evenodd" d="M10.0007 28.0021C21.0464 28.0021 30.0007 19.0478 30.0007 8.00206C30.0007 5.98878 29.7032 4.04498 29.1498 2.21221C35.5938 5.53318 40.0004 12.2527 40.0004 20.0014C40.0004 31.0471 31.0461 40.0014 20.0004 40.0014C10.968 40.0014 3.33407 34.0138 0.851295 25.7913C3.59309 27.2043 6.70372 28.0021 10.0007 28.0021ZM0.384766 16.0797C2.18757 7.01197 10.1209 0.152742 19.6829 0.00390625C21.4793 2.17614 22.5588 4.96304 22.5588 8.00206C22.5588 14.9377 16.9363 20.5602 10.0007 20.5602C6.14123 20.5602 2.68841 18.8192 0.384766 16.0797Z" fill="#DD3636"/>
</g>
<defs>
<clipPath id="clip0_1667_2407">
<rect width="116.25" height="40" fill="white"/>
</clipPath>
</defs>
</svg>
