<svg width="160" height="57" viewBox="0 0 160 57" fill="none" xmlns="http://www.w3.org/2000/svg">
<path d="M27.9374 27.322L15.6465 22.2006L17.6928 17.2895L27.8711 21.5299L37.8866 17.083L40.0465 21.9448L27.9374 27.322Z" fill="#D80032"/>
<path d="M30.5996 12.8789H25.2793V42.2146H30.5996V12.8789Z" fill="#D80032"/>
<path d="M28.2515 56.7355C23.2252 56.7372 18.2895 55.3969 13.9544 52.8531C9.6193 50.3094 6.04194 46.6543 3.59187 42.2656L1.37695 38.3057H55.126L52.913 42.2656C50.4627 46.6546 46.8851 50.3098 42.5496 52.8536C38.2141 55.3974 33.2781 56.7375 28.2515 56.7355ZM11.0305 43.6279C13.1821 46.0743 15.8303 48.0341 18.7988 49.3765C21.7673 50.719 24.9878 51.4134 28.2458 51.4134C31.5037 51.4134 34.7243 50.719 37.6928 49.3765C40.6613 48.0341 43.3095 46.0743 45.4611 43.6279H11.0305Z" fill="#D80032"/>
<path d="M56.1885 33.3281H0.313573L0.103257 30.8972C0.035048 30.1033 0.000947435 29.2924 0.000947435 28.4833C-0.0295949 24.7539 0.678584 21.0553 2.08464 17.6009C3.49069 14.1466 5.56679 11.0048 8.19318 8.35678C10.8196 5.7088 13.9442 3.60704 17.387 2.17275C20.8297 0.738453 24.5224 0 28.252 0C31.9815 0 35.6742 0.738453 39.1169 2.17275C42.5597 3.60704 45.6844 5.7088 48.3108 8.35678C50.9371 11.0048 53.0132 14.1466 54.4193 17.6009C55.8254 21.0553 56.5335 24.7539 56.503 28.4833C56.503 29.2905 56.4689 30.1033 56.3988 30.8972L56.1885 33.3281ZM5.32696 28.0078H51.1789C51.1789 21.9274 48.7635 16.0961 44.464 11.7967C40.1646 7.49722 34.3333 5.08181 28.2529 5.08181C22.1726 5.08181 16.3413 7.49722 12.0418 11.7967C7.74237 16.0961 5.32696 21.9274 5.32696 28.0078Z" fill="#D80032"/>
<path d="M73.7292 25.4802C71.8991 25.4802 70.2864 25.0635 68.8912 24.23C67.496 23.3965 66.4088 22.2368 65.6297 20.751C64.8505 19.247 64.4609 17.5076 64.4609 15.5325C64.4609 13.5393 64.8505 11.7998 65.6297 10.314C66.4088 8.8101 67.496 7.64138 68.8912 6.80788C70.2864 5.97437 71.8991 5.55762 73.7292 5.55762C75.5774 5.55762 77.1991 5.97437 78.5943 6.80788C79.9895 7.62326 81.0767 8.78292 81.8558 10.2869C82.635 11.7727 83.0246 13.5212 83.0246 15.5325C83.0246 17.5257 82.6259 19.2742 81.8287 20.7782C81.0495 22.264 79.9623 23.4236 78.5671 24.2571C77.1719 25.0725 75.5592 25.4802 73.7292 25.4802ZM73.7292 21.4033C74.762 21.4033 75.6498 21.1677 76.3928 20.6966C77.1357 20.2074 77.7064 19.5279 78.1051 18.6582C78.5218 17.7703 78.7302 16.7284 78.7302 15.5325C78.7302 14.3185 78.5218 13.2766 78.1051 12.4069C77.7064 11.519 77.1357 10.8395 76.3928 10.3684C75.6498 9.87916 74.762 9.63455 73.7292 9.63455C72.7145 9.63455 71.8266 9.8701 71.0656 10.3412C70.3227 10.8123 69.7428 11.4918 69.3261 12.3797C68.9274 13.2494 68.7281 14.3004 68.7281 15.5325C68.7281 16.7465 68.9274 17.7975 69.3261 18.6853C69.7428 19.5551 70.3227 20.2255 71.0656 20.6966C71.8266 21.1677 72.7145 21.4033 73.7292 21.4033Z" fill="#22252B"/>
<path d="M93.7896 24.991L93.4634 23.4146V16.4838C93.4634 15.8496 93.2369 15.3966 92.7839 15.1248C92.3309 14.853 91.7692 14.7171 91.0988 14.7171C90.3921 14.7171 89.6402 14.853 88.8429 15.1248C88.0456 15.3785 87.3752 15.6956 86.8316 16.0761L85.0921 13.1951C86.1612 12.4884 87.194 11.9992 88.1906 11.7274C89.2053 11.4375 90.2925 11.2925 91.4521 11.2925C93.3547 11.2925 94.8405 11.7636 95.9096 12.7058C96.9967 13.6299 97.5403 14.8893 97.5403 16.4838V24.991H93.7896ZM90.0116 25.29C89.0513 25.29 88.1725 25.1088 87.3752 24.7464C86.596 24.3659 85.9709 23.8313 85.4998 23.1428C85.0468 22.4542 84.8203 21.657 84.8203 20.751C84.8203 19.9718 84.9834 19.2923 85.3095 18.7125C85.6538 18.1327 86.1068 17.6887 86.6685 17.3807C87.0853 17.1452 87.5564 16.973 88.0819 16.8643C88.6073 16.7556 89.169 16.7012 89.767 16.7012H93.7896V19.7182H90.3649C90.1475 19.7182 89.9482 19.7363 89.767 19.7725C89.6039 19.8088 89.459 19.8722 89.3321 19.9628C89.2053 20.0534 89.1056 20.1711 89.0331 20.3161C88.9607 20.4429 88.9244 20.5879 88.9244 20.751C88.9244 21.1315 89.0784 21.4395 89.3865 21.6751C89.7126 21.8925 90.1384 22.0012 90.6639 22.0012C91.1713 22.0012 91.6333 21.9016 92.0501 21.7023C92.4849 21.4848 92.8292 21.1949 93.0829 20.8325C93.3366 20.4701 93.4634 20.0534 93.4634 19.5823L94.3332 21.8925C93.9889 22.8166 93.5721 23.5233 93.0829 24.0125C92.6118 24.5017 92.1044 24.837 91.5608 25.0182C91.0354 25.1994 90.519 25.29 90.0116 25.29Z" fill="#22252B"/>
<path d="M109.331 24.991L105.852 19.392L104.112 21.4305V16.3479L108.543 11.5915H113.734L108.842 16.6469L114.196 24.991H109.331ZM100.307 24.991V6.04685H104.411V24.991H100.307Z" fill="#22252B"/>
<path d="M65.1948 50.7316V31.7875H78.0235V35.5926H69.462V39.0716H76.9092V42.8767H69.462V50.7316H65.1948Z" fill="#22252B"/>
<path d="M80.0548 50.7316V37.3321H84.1589V50.7316H80.0548ZM80.0276 35.4839V31.7875H84.2132V35.4839H80.0276Z" fill="#22252B"/>
<path d="M87.0892 50.7316V37.3321H91.1933V40.4849H90.6497C90.8671 39.5789 91.2114 38.8813 91.6825 38.3921C92.1536 37.8847 92.6791 37.5314 93.2589 37.3321C93.8569 37.1328 94.4367 37.0331 94.9984 37.0331C96.5567 37.0331 97.7707 37.468 98.6405 38.3377C99.5102 39.1894 99.9451 40.349 99.9451 41.8167V50.7316H95.841V43.3388C95.841 42.3784 95.6688 41.6808 95.3246 41.2459C94.9984 40.8111 94.4639 40.5936 93.721 40.5936C93.1411 40.5936 92.661 40.7295 92.2805 41.0013C91.9181 41.2731 91.6463 41.6989 91.4651 42.2788C91.2839 42.8405 91.1933 43.5743 91.1933 44.4803V50.7316H87.0892Z" fill="#22252B"/>
<path d="M111.175 50.7316L110.849 49.1552V42.2244C110.849 41.5902 110.622 41.1372 110.169 40.8654C109.716 40.5936 109.155 40.4577 108.484 40.4577C107.777 40.4577 107.025 40.5936 106.228 40.8654C105.431 41.1191 104.761 41.4362 104.217 41.8167L102.477 38.9357C103.547 38.229 104.579 37.7398 105.576 37.468C106.591 37.1781 107.678 37.0331 108.837 37.0331C110.74 37.0331 112.226 37.5042 113.295 38.4464C114.382 39.3706 114.926 40.6299 114.926 42.2244V50.7316H111.175ZM107.397 51.0306C106.437 51.0306 105.558 50.8494 104.761 50.487C103.981 50.1065 103.356 49.5719 102.885 48.8834C102.432 48.1948 102.206 47.3976 102.206 46.4916C102.206 45.7124 102.369 45.033 102.695 44.4531C103.039 43.8733 103.492 43.4294 104.054 43.1213C104.471 42.8858 104.942 42.7136 105.467 42.6049C105.993 42.4962 106.554 42.4418 107.152 42.4418H111.175V45.4588H107.75C107.533 45.4588 107.334 45.4769 107.152 45.5131C106.989 45.5494 106.844 45.6128 106.717 45.7034C106.591 45.794 106.491 45.9118 106.418 46.0567C106.346 46.1836 106.31 46.3285 106.31 46.4916C106.31 46.8721 106.464 47.1801 106.772 47.4157C107.098 47.6331 107.524 47.7418 108.049 47.7418C108.557 47.7418 109.019 47.6422 109.435 47.4429C109.87 47.2254 110.215 46.9355 110.468 46.5731C110.722 46.2107 110.849 45.794 110.849 45.3229L111.718 47.6331C111.374 48.5572 110.957 49.2639 110.468 49.7531C109.997 50.2424 109.49 50.5776 108.946 50.7588C108.421 50.94 107.904 51.0306 107.397 51.0306Z" fill="#22252B"/>
<path d="M117.693 50.7316V37.3321H121.797V40.4849H121.253C121.471 39.5789 121.815 38.8813 122.286 38.3921C122.757 37.8847 123.283 37.5314 123.862 37.3321C124.46 37.1328 125.04 37.0331 125.602 37.0331C127.16 37.0331 128.374 37.468 129.244 38.3377C130.114 39.1894 130.549 40.349 130.549 41.8167V50.7316H126.444V43.3388C126.444 42.3784 126.272 41.6808 125.928 41.2459C125.602 40.8111 125.067 40.5936 124.324 40.5936C123.745 40.5936 123.264 40.7295 122.884 41.0013C122.522 41.2731 122.25 41.6989 122.069 42.2788C121.887 42.8405 121.797 43.5743 121.797 44.4803V50.7316H117.693Z" fill="#22252B"/>
<path d="M139.468 51.0306C138.327 51.0306 137.33 50.8313 136.478 50.4326C135.645 50.034 134.947 49.4995 134.386 48.829C133.824 48.1586 133.407 47.4066 133.135 46.5731C132.864 45.7396 132.728 44.888 132.728 44.0182C132.728 43.1485 132.864 42.2969 133.135 41.4634C133.407 40.6299 133.824 39.887 134.386 39.2347C134.947 38.5642 135.645 38.0297 136.478 37.6311C137.33 37.2324 138.327 37.0331 139.468 37.0331C140.882 37.0331 142.105 37.3683 143.137 38.0388C144.17 38.7092 144.94 39.7329 145.448 41.11L141.887 42.5234C141.706 41.9617 141.425 41.4996 141.045 41.1372C140.682 40.7748 140.157 40.5936 139.468 40.5936C138.834 40.5936 138.318 40.7658 137.919 41.11C137.538 41.4362 137.258 41.862 137.076 42.3875C136.913 42.9129 136.832 43.4565 136.832 44.0182C136.832 44.58 136.913 45.1326 137.076 45.6762C137.258 46.2017 137.538 46.6365 137.919 46.9808C138.318 47.307 138.834 47.4701 139.468 47.4701C140.157 47.4701 140.682 47.2889 141.045 46.9265C141.425 46.5641 141.706 46.102 141.887 45.5403L145.448 46.9536C144.94 48.3307 144.17 49.3545 143.137 50.0249C142.105 50.6954 140.882 51.0306 139.468 51.0306Z" fill="#22252B"/>
<path d="M153.83 51.0306C152.597 51.0306 151.546 50.8403 150.677 50.4598C149.807 50.0612 149.1 49.5357 148.557 48.8834C148.013 48.213 147.615 47.4701 147.361 46.6547C147.125 45.8212 147.008 44.9695 147.008 44.0998C147.008 43.2663 147.125 42.4328 147.361 41.5993C147.615 40.7658 147.995 40.0047 148.502 39.3162C149.028 38.6276 149.707 38.075 150.541 37.6582C151.392 37.2415 152.416 37.0331 153.612 37.0331C154.663 37.0331 155.587 37.2143 156.384 37.5767C157.182 37.921 157.843 38.4102 158.369 39.0444C158.912 39.6786 159.32 40.4305 159.592 41.3003C159.863 42.17 159.999 43.1213 159.999 44.1541C159.999 44.3353 159.99 44.5256 159.972 44.7249C159.972 44.9242 159.954 45.1688 159.918 45.4588H151.112C151.22 46.1836 151.556 46.709 152.117 47.0352C152.697 47.3613 153.358 47.5244 154.101 47.5244C154.754 47.5244 155.424 47.4157 156.113 47.1983C156.801 46.9627 157.399 46.6456 157.907 46.247L159.646 49.128C158.939 49.5991 158.296 49.9796 157.716 50.2695C157.136 50.5413 156.538 50.7316 155.922 50.8403C155.324 50.9672 154.627 51.0306 153.83 51.0306ZM155.977 43.4203C156.013 43.2753 156.04 43.1304 156.058 42.9854C156.095 42.8405 156.113 42.7046 156.113 42.5777C156.113 42.2335 156.049 41.9345 155.922 41.6808C155.796 41.409 155.614 41.1825 155.379 41.0013C155.161 40.8201 154.908 40.6842 154.618 40.5936C154.328 40.4849 154.02 40.4305 153.694 40.4305C153.096 40.4305 152.606 40.5393 152.226 40.7567C151.864 40.9741 151.592 41.2369 151.411 41.5449C151.229 41.8529 151.112 42.1519 151.057 42.4418H157.336L155.977 43.4203Z" fill="#22252B"/>
</svg>
