<svg width="24" height="27" viewBox="0 0 24 27" fill="none" xmlns="http://www.w3.org/2000/svg">
<path d="M19.5412 19.2091C18.1778 20.5725 15.1901 23.5602 13.4114 25.3389C12.6303 26.12 11.3673 26.1203 10.5863 25.3392C8.83739 23.5903 5.91177 20.6647 4.45623 19.2091C0.290633 15.0435 0.290633 8.28979 4.45623 4.12419C8.62182 -0.0413981 15.3756 -0.0413981 19.5412 4.12419C23.7068 8.28979 23.7068 15.0435 19.5412 19.2091Z" stroke="#DD3636" stroke-width="2" stroke-linecap="round" stroke-linejoin="round"/>
<path d="M15.9987 11.6667C15.9987 13.8758 14.2078 15.6667 11.9987 15.6667C9.78956 15.6667 7.9987 13.8758 7.9987 11.6667C7.9987 9.45753 9.78956 7.66667 11.9987 7.66667C14.2078 7.66667 15.9987 9.45753 15.9987 11.6667Z" stroke="#DD3636" stroke-width="2" stroke-linecap="round" stroke-linejoin="round"/>
</svg>
