<svg width="48" height="48" viewBox="0 0 48 48" fill="none" xmlns="http://www.w3.org/2000/svg">
<rect width="48" height="48" rx="24" fill="#19A05F" fill-opacity="0.1"/>
<path d="M16.7984 16.7695C15.473 16.7695 14.3984 17.844 14.3984 19.1695V20.3695L33.5984 20.3695V19.1695C33.5984 17.844 32.5239 16.7695 31.1984 16.7695L16.7984 16.7695Z" fill="#19A05F"/>
<path fill-rule="evenodd" clip-rule="evenodd" d="M33.5984 22.7695H14.3984L14.3984 28.7695C14.3984 30.095 15.473 31.1695 16.7984 31.1695H31.1984C32.5239 31.1695 33.5984 30.095 33.5984 28.7695V22.7695ZM16.7984 27.5695C16.7984 26.9068 17.3357 26.3695 17.9984 26.3695H19.1984C19.8612 26.3695 20.3984 26.9068 20.3984 27.5695C20.3984 28.2323 19.8612 28.7695 19.1984 28.7695H17.9984C17.3357 28.7695 16.7984 28.2323 16.7984 27.5695ZM22.7984 26.3695C22.1357 26.3695 21.5984 26.9068 21.5984 27.5695C21.5984 28.2323 22.1357 28.7695 22.7984 28.7695H23.9984C24.6612 28.7695 25.1984 28.2323 25.1984 27.5695C25.1984 26.9068 24.6612 26.3695 23.9984 26.3695H22.7984Z" fill="#19A05F"/>
</svg>
