<svg width="21" height="21" viewBox="0 0 21 21" fill="none" xmlns="http://www.w3.org/2000/svg">
<path d="M10.0345 20.0122C4.51155 20.0122 0.0345459 15.5352 0.0345459 10.0122C0.0345459 4.48921 4.51155 0.012207 10.0345 0.012207C15.5575 0.012207 20.0345 4.48921 20.0345 10.0122C20.0345 15.5352 15.5575 20.0122 10.0345 20.0122ZM10.0345 18.0122C12.1563 18.0122 14.1911 17.1694 15.6914 15.6691C17.1917 14.1688 18.0345 12.1339 18.0345 10.0122C18.0345 7.89048 17.1917 5.85564 15.6914 4.35535C14.1911 2.85506 12.1563 2.01221 10.0345 2.01221C7.91281 2.01221 5.87798 2.85506 4.37769 4.35535C2.8774 5.85564 2.03455 7.89048 2.03455 10.0122C2.03455 12.1339 2.8774 14.1688 4.37769 15.6691C5.87798 17.1694 7.91281 18.0122 10.0345 18.0122ZM5.03455 9.01221H15.0345V11.0122H5.03455V9.01221Z" fill="#0F47AE"/>
</svg>
