<svg width="26" height="26" viewBox="0 0 26 26" fill="none" xmlns="http://www.w3.org/2000/svg">
<path d="M1 3.66667C1 2.19391 2.19391 1 3.66667 1H8.03899C8.61289 1 9.12241 1.36724 9.3039 1.9117L11.301 7.90295C11.5108 8.53243 11.2258 9.22041 10.6324 9.51716L7.62268 11.022C9.09233 14.2816 11.7184 16.9077 14.978 18.3773L16.4828 15.3676C16.7796 14.7742 17.4676 14.4892 18.0971 14.699L24.0883 16.6961C24.6328 16.8776 25 17.3871 25 17.961V22.3333C25 23.8061 23.8061 25 22.3333 25H21C9.95431 25 1 16.0457 1 5V3.66667Z" stroke="#DD3636" stroke-width="2" stroke-linecap="round" stroke-linejoin="round"/>
</svg>
