<svg width="40" height="40" viewBox="0 0 40 40" fill="none" xmlns="http://www.w3.org/2000/svg">
<path d="M30.5495 9.45004L10.9828 29.0167C10.2495 29.75 9.01615 29.65 8.41615 28.7833C6.34948 25.7667 5.13281 22.2 5.13281 18.5333V11.2167C5.13281 9.85003 6.16615 8.30004 7.43282 7.78337L16.7162 3.98337C18.8162 3.11671 21.1495 3.11671 23.2495 3.98337L29.9828 6.73336C31.0995 7.18336 31.3828 8.6167 30.5495 9.45004Z" fill="#EFA4A4"/>
<path d="M32.1173 11.7333C33.2007 10.8167 34.8507 11.6 34.8507 13.0166V18.5333C34.8507 26.6833 28.934 34.3166 20.8507 36.55C20.3007 36.7 19.7007 36.7 19.134 36.55C16.7674 35.8833 14.5673 34.7667 12.684 33.3C11.884 32.6833 11.8007 31.5167 12.5007 30.8C16.134 27.0833 26.7673 16.25 32.1173 11.7333Z" fill="#DD3636"/>
</svg>
