<svg width="56" height="56" viewBox="0 0 56 56" fill="none" xmlns="http://www.w3.org/2000/svg">
<path d="M27.9994 51.3332C40.886 51.3332 51.3327 40.8865 51.3327 27.9998C51.3327 15.1132 40.886 4.6665 27.9994 4.6665C15.1127 4.6665 4.66602 15.1132 4.66602 27.9998C4.66602 40.8865 15.1127 51.3332 27.9994 51.3332Z" fill="#DD3636"/>
<path d="M24.6873 36.3536C24.2207 36.3536 23.7773 36.1669 23.4507 35.8402L16.8473 29.2369C16.1707 28.5602 16.1707 27.4402 16.8473 26.7636C17.524 26.0869 18.644 26.0869 19.3207 26.7636L24.6873 32.1302L36.6807 20.1369C37.3573 19.4602 38.4773 19.4602 39.154 20.1369C39.8307 20.8136 39.8307 21.9336 39.154 22.6102L25.924 35.8402C25.5973 36.1669 25.154 36.3536 24.6873 36.3536Z" fill="#FCF7F7"/>
</svg>
