<svg width="24" height="17" viewBox="0 0 24 17" fill="none" xmlns="http://www.w3.org/2000/svg">
<path d="M23.001 6.44582C23.0505 5.01448 22.7374 3.59384 22.091 2.31582C21.6524 1.79142 21.0437 1.43753 20.371 1.31582C17.5885 1.06335 14.7945 0.959868 12.001 1.00582C9.21765 0.957782 6.43371 1.05792 3.661 1.30582C3.11282 1.40554 2.60552 1.66267 2.201 2.04582C1.301 2.87582 1.201 4.29582 1.101 5.49582C0.955916 7.65339 0.955916 9.81826 1.101 11.9758C1.12993 12.6512 1.2305 13.3217 1.401 13.9758C1.52158 14.4809 1.76553 14.9482 2.111 15.3358C2.51827 15.7393 3.03739 16.011 3.601 16.1158C5.75692 16.3819 7.92922 16.4922 10.101 16.4458C13.601 16.4958 16.671 16.4458 20.301 16.1658C20.8785 16.0675 21.4122 15.7954 21.831 15.3858C22.111 15.1057 22.3201 14.7629 22.441 14.3858C22.7986 13.2884 22.9743 12.1399 22.961 10.9858C23.001 10.4258 23.001 7.04582 23.001 6.44582ZM9.741 11.5858V5.39582L15.661 8.50582C14.001 9.42582 11.811 10.4658 9.741 11.5858Z" fill="#FF0000"/>
</svg>
