<svg width="130" height="32" viewBox="0 0 130 32" fill="none" xmlns="http://www.w3.org/2000/svg">
<path d="M12.3897 16.9343H7.98451L10.3307 9.2788L12.3897 16.9343ZM5.69961 25.3708L7.20351 20.3295H13.1384L14.5455 25.3579H20.0319L14.581 6.18692C14.2583 5.05409 13.5806 4.53125 12.3897 4.53125H4.6088V6.34184H5.25425C6.06752 6.34184 6.50642 6.66458 6.50642 7.28102C6.50642 7.69091 6.41606 8.03301 6.09333 8.96574L0.632812 25.3708H5.69961Z" fill="#687180"/>
<path d="M26.3796 25.3708V6.12883C26.3796 5.1251 25.7922 4.53125 24.8208 4.53125H19.9961V6.34184H20.3188C21.1289 6.34184 21.4742 6.68718 21.4742 7.50694V25.3708H26.3796Z" fill="#687180"/>
<path d="M34.7183 25.3708V6.12883C34.7183 5.1251 34.1212 4.53125 33.1563 4.53125H28.3477V6.34184H28.6704C29.4837 6.34184 29.829 6.68718 29.829 7.50694V25.3708H34.7183Z" fill="#687180"/>
<path d="M43.2733 6.43498C43.2733 5.03751 42.2373 4.17578 40.4624 4.17578C38.6874 4.17578 37.645 5.02137 37.645 6.43498C37.645 7.8486 38.7132 8.69419 40.4624 8.69419C42.2115 8.69419 43.2733 7.85506 43.2733 6.43498ZM43.1797 25.3736V11.3471C43.1797 10.3466 42.5859 9.75601 41.6145 9.75601H36.8672V11.5311H37.148C37.958 11.5311 38.3033 11.9055 38.3033 12.7188V25.3736H43.1797Z" fill="#687180"/>
<path d="M53.9186 17.8703V20.9073C53.1021 21.7496 52.1081 22.266 51.2658 22.266C50.4234 22.266 50.0781 21.8335 50.0781 20.6523C50.0781 19.4711 50.3234 18.9708 51.2012 18.6319C52.0753 18.2761 52.9869 18.0206 53.9186 17.8703ZM47.322 14.2233C48.8212 13.4795 50.4615 13.0636 52.1339 13.0033C53.4506 13.0033 53.9186 13.4713 53.9186 14.8365V15.185C51.9209 15.5078 51.2948 15.6304 50.1685 15.8789C49.5377 16.0179 48.92 16.2112 48.3225 16.4566C46.3506 17.2474 45.418 18.7707 45.418 21.1106C45.418 24.0798 46.7089 25.5128 49.352 25.5128C50.2511 25.5165 51.1426 25.3489 51.979 25.019C52.7376 24.6737 53.4429 24.2216 54.0735 23.6764V23.8959C54.0735 24.8641 54.5705 25.3579 55.5419 25.3579H60.0116V23.6893H59.7922C58.9499 23.6893 58.64 23.3117 58.64 22.3144V14.8752C58.64 10.9087 57.262 9.52734 53.2893 9.52734C52.0298 9.53362 50.7751 9.68195 49.5489 9.9695C48.3903 10.2279 47.2744 10.6495 46.2345 11.2217L47.322 14.2233Z" fill="#687180"/>
<path d="M67.1328 25.3751V14.8149C67.9493 13.908 68.7884 13.4981 69.7566 13.4981C70.7925 13.4981 71.0475 13.908 71.0475 15.4797V25.3751H75.9207V14.7568C75.9207 12.2846 75.7432 11.5035 74.9525 10.6644C74.307 9.93824 73.2969 9.57031 72.0092 9.57031C70.1019 9.57031 68.7594 10.1609 66.9553 11.8489V11.226C66.9553 10.2578 66.4486 9.7575 65.4514 9.7575H60.8203V11.5326H61.1011C61.9111 11.5326 62.2597 11.907 62.2597 12.7203V25.3751H67.1328Z" fill="#687180"/>
<path d="M90.3721 22.091H83.5723L90.0752 12.9735V9.74609H79.8771C78.7217 9.74609 78.1892 10.2754 78.1892 11.434V14.2742H79.9997V13.9966C79.9997 13.2769 80.3741 12.9348 81.1518 12.9348H84.6566L78.0859 22.1556V25.383H90.3495L90.3721 22.091Z" fill="#687180"/>
<path d="M115.956 24.9771V7.31982C115.956 5.91266 115.456 5.43823 114.091 5.43823H109.957V7.4231H110.205C111.147 7.4231 111.331 7.63611 111.331 8.77216V24.9771H115.956ZM117.996 24.9771H122.585V11.225C122.585 9.84367 122.052 9.34665 120.707 9.34665H117.996V24.9771ZM109.305 24.9771V9.35956H106.584C105.238 9.35956 104.712 9.85658 104.712 11.2379V24.9771H109.305ZM126.929 16.0016C126.929 23.783 121.333 29.4406 113.649 29.4406C105.964 29.4406 100.355 23.783 100.355 16.0016C100.355 8.22027 105.961 2.56258 113.649 2.56258C121.336 2.56258 126.929 8.25255 126.929 16.0016ZM129.646 16.0016C129.646 6.85184 122.801 0 113.649 0C104.496 0 97.6445 6.85184 97.6445 16.0016C97.6445 25.1514 104.49 32 113.649 32C122.807 32 129.646 25.174 129.646 16.0016Z" fill="#687180"/>
</svg>
