<svg width="108" height="72" viewBox="0 0 108 72" fill="none" xmlns="http://www.w3.org/2000/svg">
<g clip-path="url(#clip0_626_2037)">
<path fill-rule="evenodd" clip-rule="evenodd" d="M97.1478 47.0537C93.9742 47.3037 91.3379 45.1975 91.3379 41.5212C91.3379 37.8489 93.9687 35.7845 97.1377 36.0247C103.698 36.5213 103.706 46.5374 97.1478 47.0537ZM107.263 33.2205H107.261V32.8359C107.261 32.6328 107.096 32.4682 106.891 32.4682H103.082C102.878 32.4682 102.712 32.6328 102.712 32.8359V33.2073L102.714 33.2092H102.712V33.2995C102.693 33.4791 102.481 33.5359 102.354 33.4082C101.609 32.6607 99.1432 31.9691 96.8959 31.9691C91.526 31.932 87.3125 35.2267 87.3125 41.5194C87.3125 47.9232 91.3397 51.2545 96.7841 51.2181C98.8123 51.1812 101.139 50.9298 102.712 48.8486V50.9123C102.712 51.1152 102.878 51.2799 103.082 51.2799H106.891C107.096 51.2799 107.261 51.1152 107.261 50.9123V50.2111L107.263 49.5865V33.2205Z" fill="#687180"/>
<path fill-rule="evenodd" clip-rule="evenodd" d="M19.1951 43.1493C19.4934 45.4073 21.4699 47.0363 24.6768 47.0363C26.3549 47.0363 28.5551 46.4066 29.5992 45.3336L32.508 48.1836C30.5689 50.1825 27.399 51.1449 24.6021 51.1449C18.2626 51.1449 14.4961 47.2581 14.4961 41.4095C14.4961 35.8571 18.3 31.8594 24.2666 31.8594C30.4199 31.8594 34.2606 35.6351 33.5522 43.1493H19.1951ZM29.1899 39.4059C28.8917 37.037 27.0272 35.8525 24.4166 35.8525C21.9554 35.8525 19.9415 37.037 19.2704 39.4059H29.1899Z" fill="#687180"/>
<mask id="mask0_626_2037" style="mask-type:alpha" maskUnits="userSpaceOnUse" x="0" y="32" width="16" height="20">
<path fill-rule="evenodd" clip-rule="evenodd" d="M8.06657 51.3008H0.832031V32.5703H15.3012V51.3008H8.06657Z" fill="white"/>
</mask>
<g mask="url(#mask0_626_2037)">
<path fill-rule="evenodd" clip-rule="evenodd" d="M10.5653 32.5703C8.70093 32.5703 6.79857 32.9036 5.3818 35.1616V33.3766C5.3818 33.1736 5.21594 33.009 5.0113 33.009H1.20269C0.998049 33.009 0.832031 33.1736 0.832031 33.3766V34.4629V35.1405V35.7416V37.5141V47.6572V48.6105L0.836392 48.6153L0.832031 48.6178V49.9554V50.9329C0.832031 51.136 0.998049 51.3008 1.20269 51.3008H5.0113C5.21594 51.3008 5.3818 51.136 5.3818 50.9329V49.029C5.3818 48.9368 5.39256 48.8493 5.3818 48.7603V45.9279V41.6763C5.3818 38.3082 7.58179 37.0494 9.96854 37.0494C11.4601 37.0494 12.3179 37.4565 13.2504 38.2338L15.3012 34.3101C14.2944 33.3107 12.4668 32.5703 10.5653 32.5703Z" fill="#687180"/>
</g>
<mask id="mask1_626_2037" style="mask-type:alpha" maskUnits="userSpaceOnUse" x="66" y="32" width="6" height="20">
<path fill-rule="evenodd" clip-rule="evenodd" d="M66.9688 51.2761H71.5217V32.9531H66.9688V51.2761Z" fill="white"/>
</mask>
<g mask="url(#mask1_626_2037)">
<path fill-rule="evenodd" clip-rule="evenodd" d="M71.5217 48.9773V41.5039H71.52V33.3207C71.52 33.1177 71.3542 32.9531 71.1494 32.9531H67.3409C67.1363 32.9531 66.9701 33.1177 66.9701 33.3207V45.5282C66.9701 45.5347 66.972 45.5408 66.9723 45.5471V48.5859L66.9784 48.5932H66.9701V48.9836C66.9697 48.9942 66.9688 49.0053 66.9688 49.0164C66.9688 49.0273 66.9697 49.0382 66.9701 49.0492V50.9083C66.9701 51.1115 67.1363 51.2762 67.3409 51.2762H71.1494C71.3542 51.2762 71.52 51.1115 71.52 50.9083V49.0499C71.5202 49.0386 71.5217 49.0275 71.5217 49.0164C71.5217 49.0053 71.5207 48.9942 71.52 48.9834V48.9775L71.5217 48.9773Z" fill="#687180"/>
</g>
<path fill-rule="evenodd" clip-rule="evenodd" d="M56.4287 32.7849C54.0421 32.7849 51.9164 33.525 50.2756 36.1164C49.2313 33.599 47.0312 32.7109 44.831 32.7109C43.0783 32.7109 40.9527 33.377 39.9833 35.2279V33.3691C39.9833 33.1659 39.8173 33.0014 39.6127 33.0014H35.8041C35.5994 33.0014 35.4336 33.1659 35.4336 33.3691V35.6969V37.5066V46.7807V48.6029V50.9182C35.4336 51.1212 35.5994 51.2859 35.8041 51.2859H39.6127C39.8173 51.2859 39.9833 51.1212 39.9833 50.9182V48.6029V41.5209C39.9833 39.1147 41.4377 36.9308 43.8988 36.9308C46.3972 36.9308 47.6653 39.1147 47.6653 41.5209V48.6029L47.6769 48.6168V50.9254C47.6769 51.1285 47.8428 51.2931 48.0474 51.2931H51.856C52.0606 51.2931 52.2267 51.1285 52.2267 50.9254V45.9203H52.2147V41.5209C52.2147 39.1147 53.7436 37.0048 56.2049 37.0048C58.666 37.0048 59.6731 39.0407 59.6731 41.4467V46.7807L59.6727 50.9182C59.6727 51.1212 59.8387 51.2859 60.0433 51.2859H63.8518C64.0566 51.2859 64.2225 51.1212 64.2225 50.9182V48.6029V46.7807V41.4467C64.2225 35.9683 61.6494 32.7849 56.4287 32.7849Z" fill="#687180"/>
<path fill-rule="evenodd" clip-rule="evenodd" d="M52.1943 29.189C51.2795 30.1061 49.7962 30.1061 48.8814 29.189C47.9666 28.2718 47.9666 26.7847 48.8814 25.8676C49.7962 24.9504 51.2795 24.9504 52.1943 25.8676C53.1091 26.7847 53.1091 28.2718 52.1943 29.189Z" fill="#687180"/>
<path fill-rule="evenodd" clip-rule="evenodd" d="M61.6321 28.966C60.4187 30.1825 58.4514 30.1825 57.2381 28.966C56.0248 27.7495 56.0248 25.7772 57.2381 24.5607C58.4514 23.3444 60.4187 23.3444 61.6321 24.5607C62.8454 25.7772 62.8454 27.7495 61.6321 28.966Z" fill="#687180"/>
<path fill-rule="evenodd" clip-rule="evenodd" d="M72.3164 28.6628C70.6982 30.2853 68.0744 30.2853 66.4558 28.6628C64.8377 27.0404 64.8377 24.4097 66.4558 22.7871C68.0744 21.1647 70.6982 21.1647 72.3164 22.7871C73.9349 24.4097 73.9349 27.0404 72.3164 28.6628Z" fill="#687180"/>
<path fill-rule="evenodd" clip-rule="evenodd" d="M86.242 46.2999C86.242 46.2999 85.4027 46.5726 84.8654 46.7068C84.3286 46.8417 83.8695 46.9091 83.4893 46.9091C83.1982 46.9091 82.924 46.8754 82.6668 46.8082C82.4091 46.7406 82.1802 46.6176 81.9784 46.4381C81.7771 46.2586 81.6144 46.0118 81.4916 45.6975C81.3685 45.3835 81.3072 44.9795 81.3072 44.4859V34.6712H85.9867C86.1893 34.6712 86.3535 34.5048 86.3535 34.2998V30.4814C86.3535 30.2762 86.1893 30.1098 85.9867 30.1098H81.3072V24.5078H79.7293C79.3712 26.5496 78.7056 28.2099 77.7321 29.4887C76.7585 30.7679 75.4882 31.7327 73.9219 32.3831V34.5709H76.4731V44.1493C76.4731 45.361 76.5793 46.4159 76.7922 47.3127C77.0046 48.2104 77.346 48.951 77.8159 49.5342C78.2859 50.118 78.9121 50.5497 79.6957 50.83C80.4788 51.1101 81.9723 51.2732 83.1131 51.2507C85.8181 51.1975 86.9076 50.4646 87.4004 50.1498L86.242 46.2999Z" fill="#687180"/>
</g>
<defs>
<clipPath id="clip0_626_2037">
<rect width="107.271" height="30" fill="white" transform="translate(0.078125 21.5)"/>
</clipPath>
</defs>
</svg>
