<svg width="178" height="72" viewBox="0 0 178 72" fill="none" xmlns="http://www.w3.org/2000/svg">
<path d="M170.724 21.4766L148.161 21.4766C147.403 21.4766 146.758 22.122 146.758 22.9078V25.4616C146.758 26.2474 147.403 26.8928 148.161 26.8928L170.724 26.8928C171.51 26.8928 172.127 26.2474 172.155 25.4616V22.9359C172.155 22.122 171.51 21.4766 170.724 21.4766ZM170.724 35.6487H148.161C147.796 35.6487 147.431 35.789 147.179 36.0696C146.898 36.3503 146.758 36.687 146.758 37.0799V39.6337C146.758 40.4195 147.403 41.065 148.161 41.065H170.724C171.51 41.065 172.127 40.4476 172.155 39.6337V37.0799C172.127 36.2661 171.51 35.6487 170.724 35.6487ZM160.874 42.7207H148.161C147.796 42.7207 147.431 42.861 147.179 43.1417C146.926 43.4223 146.758 43.7591 146.758 44.152V46.7058C146.758 47.4915 147.403 48.137 148.161 48.137H160.846C161.632 48.137 162.249 47.4915 162.249 46.7338V44.18C162.277 43.3381 161.66 42.6927 160.874 42.7207ZM172.155 28.5486L148.161 28.5486C147.796 28.5486 147.431 28.6889 147.179 28.9695C146.926 29.2502 146.758 29.5869 146.758 29.9798V32.5336C146.758 33.3194 147.403 33.9649 148.161 33.9649H172.127C172.913 33.9649 173.531 33.3194 173.531 32.5336V29.9798C173.559 29.1941 172.913 28.5767 172.155 28.5486Z" fill="#687180"/>
<path d="M19.6868 29.5875C18.9852 28.8578 18.1714 28.2965 17.2453 27.9037C16.3192 27.5108 15.3369 27.3143 14.3267 27.3143C13.3444 27.2862 12.3903 27.5108 11.4922 27.9317C10.9029 28.2123 10.3697 28.6052 9.92066 29.0823V28.6333C9.92066 28.4088 9.83647 28.1843 9.69615 28.0159C9.55584 27.8475 9.33133 27.7353 9.07876 27.7353H5.96369C5.73919 27.7353 5.51468 27.8195 5.37436 28.0159C5.20598 28.1843 5.12179 28.4088 5.14985 28.6333L5.14985 49.6249C5.14985 49.8494 5.23404 50.0739 5.37436 50.2423C5.54274 50.4107 5.73919 50.4949 5.96369 50.4949H9.16295C9.38745 50.4949 9.5839 50.4107 9.75228 50.2423C9.92066 50.102 10.0329 49.8775 10.0049 49.6249V42.4406C10.4539 42.9457 11.0432 43.3106 11.6887 43.5351C12.5306 43.8438 13.4006 44.0122 14.2986 44.0122C15.3089 44.0122 16.3192 43.8157 17.2453 43.4228C18.1714 43.0299 19.0133 42.4687 19.7149 41.739C20.4445 40.9813 21.0058 40.0833 21.3987 39.101C21.8477 38.0065 22.0441 36.8279 22.0161 35.6492C22.0441 34.4705 21.8196 33.2919 21.3987 32.1693C20.9777 31.2432 20.4165 30.3452 19.6868 29.5875ZM16.8243 37.1927C16.6559 37.6417 16.4034 38.0346 16.0666 38.3994C15.4211 39.101 14.495 39.4939 13.5409 39.4939C13.0638 39.4939 12.5867 39.4097 12.1377 39.1852C11.7167 38.9888 11.3238 38.7362 10.9871 38.3994C10.6503 38.0627 10.3977 37.6417 10.2294 37.1927C9.86454 36.2385 9.86454 35.2002 10.2294 34.246C10.3977 33.797 10.6784 33.4041 10.9871 33.0674C11.3238 32.7306 11.7167 32.45 12.1377 32.2535C12.5867 32.0571 13.0638 31.9448 13.5409 31.9448C14.046 31.9448 14.495 32.029 14.9721 32.2535C15.3931 32.45 15.786 32.7025 16.0947 33.0393C16.4314 33.3761 16.6559 33.7689 16.8524 34.218C17.1891 35.2002 17.1611 36.2385 16.8243 37.1927ZM39.1629 27.7633H35.9918C35.7673 27.7633 35.5427 27.8475 35.4024 28.0159C35.234 28.1843 35.1499 28.4088 35.1499 28.6614V29.0543C34.757 28.5772 34.2518 28.2123 33.7186 27.9598C32.8486 27.5388 31.8945 27.3424 30.9403 27.3424C28.8917 27.3424 26.9553 28.1562 25.496 29.5875C24.7383 30.3452 24.1489 31.2432 23.756 32.2254C23.307 33.3199 23.0825 34.4986 23.1106 35.7053C23.0825 36.884 23.307 38.0627 23.756 39.1852C24.177 40.1674 24.7383 41.0655 25.496 41.8232C26.9272 43.2825 28.8917 44.0963 30.9122 44.0963C31.8664 44.1244 32.8206 43.8999 33.6905 43.479C34.2238 43.1983 34.757 42.8335 35.1499 42.3845V42.8054C35.1499 43.0299 35.234 43.2544 35.4024 43.4228C35.5708 43.5631 35.7673 43.6754 35.9918 43.6754H39.1629C39.3875 43.6754 39.612 43.5912 39.7523 43.4228C39.9207 43.2544 40.0049 43.0299 40.0049 42.8054V28.6894C40.0049 28.4649 39.9207 28.2404 39.7803 28.072C39.612 27.8756 39.3875 27.7633 39.1629 27.7633ZM34.8692 37.1927C34.7008 37.6417 34.4483 38.0346 34.1115 38.3994C33.7747 38.7362 33.4099 39.0168 32.989 39.2133C32.0909 39.6342 31.0526 39.6342 30.1545 39.2133C29.7336 39.0168 29.3407 38.7362 29.0039 38.3994C28.6672 38.0627 28.4146 37.6417 28.2462 37.1927C27.9094 36.2385 27.9094 35.2002 28.2462 34.246C28.4146 33.797 28.6672 33.4322 29.0039 33.0674C29.3407 32.7306 29.7055 32.45 30.1545 32.2535C31.0526 31.8326 32.0909 31.8326 32.9609 32.2535C33.3818 32.45 33.7747 32.7025 34.0834 33.0393C34.3921 33.3761 34.6447 33.7689 34.8412 34.218C35.234 35.2002 35.234 36.2385 34.8692 37.1927ZM70.7626 35.2844C70.3136 34.8915 69.7803 34.5547 69.2191 34.3302C68.6297 34.0776 67.9843 33.9093 67.3669 33.7689L64.9534 33.2919C64.336 33.1796 63.887 33.0112 63.6625 32.8148C63.466 32.6745 63.3257 32.45 63.3257 32.1974C63.3257 31.9448 63.466 31.7203 63.7747 31.5239C64.1957 31.2993 64.6447 31.1871 65.1218 31.2152C65.7392 31.2152 66.3566 31.3555 66.9179 31.58C67.4791 31.8326 68.0123 32.0851 68.5175 32.4219C69.2191 32.8709 69.8365 32.7867 70.2574 32.2816L71.408 30.9626C71.6326 30.7381 71.7448 30.4574 71.7729 30.1487C71.7448 29.812 71.5764 29.5313 71.3239 29.3068C70.8468 28.8859 70.061 28.4369 69.0226 27.9878C67.9843 27.5388 66.6653 27.3143 65.1218 27.3143C64.1676 27.2862 63.2415 27.4266 62.3435 27.7072C61.5858 27.9598 60.8561 28.3246 60.2107 28.8017C59.6213 29.2507 59.1723 29.812 58.8355 30.4855C58.5268 31.131 58.3585 31.8326 58.3585 32.5341C58.3585 33.8531 58.7514 34.9196 59.5371 35.7053C60.3229 36.4911 61.3613 37.0243 62.6522 37.2769L65.1779 37.8382C65.7111 37.9224 66.2724 38.0907 66.7775 38.3433C67.0582 38.4556 67.2266 38.7362 67.2266 39.0449C67.2266 39.3255 67.0862 39.5781 66.7775 39.8026C66.4688 40.0271 65.9637 40.1674 65.2902 40.1674C64.6166 40.1674 63.9151 40.0271 63.2977 39.7184C62.7083 39.4378 62.1751 39.073 61.67 38.652C61.4455 38.4836 61.221 38.3433 60.9403 38.2311C60.6597 38.1469 60.2948 38.2311 59.93 38.5398L58.5549 39.5781C58.162 39.8588 57.9656 40.3358 58.0778 40.7848C58.162 41.2619 58.5268 41.711 59.2284 42.2442C60.9684 43.4228 63.0451 44.0402 65.1499 43.9841C66.1321 43.9841 67.1143 43.8718 68.0404 43.5912C68.8543 43.3386 69.612 42.9738 70.2855 42.4687C70.9029 42.0196 71.408 41.4303 71.7448 40.7287C72.0816 40.0552 72.25 39.3255 72.25 38.5678C72.278 37.8943 72.1377 37.2208 71.8571 36.6034C71.5764 36.1544 71.2116 35.6773 70.7626 35.2844ZM84.626 39.1291C84.4857 38.8765 84.2331 38.7081 83.9244 38.652C83.6438 38.652 83.3351 38.7362 83.1106 38.9046C82.7177 39.1572 82.2687 39.2975 81.8196 39.3255C81.6793 39.3255 81.5109 39.2975 81.3706 39.2694C81.2022 39.2414 81.0619 39.1572 80.9497 39.0449C80.8093 38.9046 80.6971 38.7362 80.6129 38.5678C80.5006 38.2872 80.4445 38.0066 80.4726 37.7259V31.9729H84.5699C84.8224 31.9729 85.047 31.8606 85.2153 31.6922C85.3837 31.5239 85.496 31.3274 85.496 31.0748V28.6333C85.496 28.3807 85.4118 28.1562 85.2153 28.0159C85.047 27.8475 84.8224 27.7633 84.5979 27.7633H80.4726V23.8344C80.4726 23.6099 80.3884 23.3573 80.22 23.217C80.0516 23.0767 79.8552 22.9925 79.6307 22.9645H76.4314C76.2069 22.9645 75.9824 23.0486 75.814 23.217C75.6456 23.3854 75.5334 23.6099 75.5334 23.8344V27.7633H73.7093C73.4847 27.7633 73.2602 27.8475 73.0919 28.044C72.9515 28.2124 72.8673 28.4369 72.8673 28.6614V31.1029C72.8673 31.3274 72.9515 31.5519 73.0919 31.7203C73.2322 31.9167 73.4567 32.0009 73.7093 32.0009H75.5334V38.8485C75.5053 39.6623 75.6737 40.4761 76.0105 41.2058C76.3192 41.8232 76.7121 42.3564 77.2453 42.8054C77.7504 43.2264 78.3398 43.5351 78.9852 43.7035C79.6307 43.8999 80.3042 44.0122 80.9777 44.0122C81.8477 44.0122 82.7457 43.8718 83.5876 43.5912C84.3734 43.3386 85.075 42.8896 85.6363 42.3003C86.0011 41.9355 86.0292 41.3461 85.7486 40.9252L84.626 39.1291ZM101.969 27.7633H98.7981C98.5736 27.7633 98.3772 27.8475 98.2088 28.0159C98.0404 28.1843 97.9562 28.4088 97.9562 28.6614V29.0543C97.5633 28.5772 97.0863 28.2123 96.525 27.9598C95.655 27.5388 94.7008 27.3424 93.7467 27.3424C91.698 27.3424 89.7616 28.1562 88.3023 29.5875C87.5446 30.3452 86.9553 31.2432 86.5624 32.2254C86.1134 33.3199 85.8889 34.4986 85.9169 35.6773C85.8889 36.8559 86.1134 38.0346 86.5624 39.1572C86.9553 40.1394 87.5727 41.0374 88.3023 41.7951C89.7336 43.2544 91.67 44.0683 93.7186 44.0683C94.6728 44.0964 95.6269 43.8718 96.4969 43.479C97.0582 43.1983 97.5633 42.8335 97.9562 42.3845V42.8054C97.9562 43.0299 98.0404 43.2544 98.2088 43.3948C98.3772 43.5631 98.5736 43.6473 98.7981 43.6473H101.969C102.446 43.6473 102.811 43.2825 102.811 42.8054V28.6894C102.811 28.4649 102.727 28.2404 102.587 28.072C102.446 27.8756 102.222 27.7633 101.969 27.7633ZM97.7036 37.1927C97.5353 37.6417 97.2827 38.0346 96.9459 38.3994C96.6092 38.7362 96.2443 39.0168 95.8234 39.2133C95.3744 39.4097 94.8973 39.522 94.3921 39.522C93.887 39.522 93.438 39.4097 92.989 39.2133C92.568 39.0168 92.1751 38.7362 91.8383 38.3994C91.5016 38.0627 91.249 37.6417 91.1087 37.1927C90.7719 36.2385 90.7719 35.2002 91.1087 34.246C91.2771 33.797 91.5296 33.4041 91.8383 33.0674C92.1751 32.7306 92.568 32.45 92.989 32.2535C93.438 32.0571 93.9151 31.9448 94.3921 31.9448C94.8692 31.9448 95.3463 32.029 95.8234 32.2535C96.2443 32.45 96.6092 32.7025 96.9459 33.0393C97.2827 33.3761 97.5353 33.7689 97.7036 34.218C98.0685 35.1721 98.0685 36.2385 97.7036 37.1927ZM119.369 38.9046L117.545 37.5014C117.208 37.2208 116.871 37.1366 116.59 37.2488C116.338 37.3611 116.113 37.5295 115.917 37.7259C115.524 38.203 115.047 38.624 114.542 38.9888C113.981 39.2975 113.391 39.4659 112.774 39.4097C112.044 39.4097 111.371 39.2133 110.781 38.7923C110.192 38.3714 109.743 37.8101 109.518 37.1085C109.35 36.6314 109.266 36.1543 109.266 35.6773C109.266 35.1721 109.35 34.695 109.518 34.1899C109.687 33.7409 109.911 33.348 110.248 33.0112C110.585 32.6745 110.95 32.3938 111.371 32.2254C111.82 32.029 112.297 31.9167 112.802 31.9167C113.419 31.8887 114.037 32.0571 114.57 32.3658C115.103 32.7025 115.552 33.1235 115.945 33.6286C116.113 33.8251 116.338 33.9935 116.59 34.1057C116.871 34.218 117.208 34.1338 117.545 33.8531L119.369 32.478C119.593 32.3377 119.762 32.1132 119.846 31.8606C119.958 31.58 119.93 31.2713 119.762 31.0187C119.06 29.9242 118.106 29.0262 116.955 28.3807C115.749 27.7072 114.317 27.3424 112.718 27.3424C111.595 27.3424 110.473 27.5669 109.406 27.9878C108.396 28.4088 107.498 28.9981 106.74 29.7558C105.982 30.5136 105.365 31.4116 104.944 32.4219C104.074 34.5267 104.074 36.884 104.944 38.9888C105.365 39.971 105.954 40.8971 106.74 41.6268C108.34 43.1983 110.473 44.0402 112.718 44.0402C114.317 44.0402 115.749 43.6754 116.955 43.0019C118.106 42.3564 119.088 41.4584 119.79 40.3358C119.93 40.0833 119.958 39.7746 119.874 39.522C119.762 39.2975 119.593 39.073 119.369 38.9046ZM136.263 42.188L131.24 34.8354L135.533 29.1665C135.73 28.9139 135.814 28.5491 135.702 28.2404C135.618 28.0159 135.421 27.7914 134.888 27.7914H131.492C131.296 27.7914 131.099 27.8475 130.931 27.9317C130.706 28.044 130.538 28.2123 130.426 28.4088L127.002 33.2077H126.188V21.87C126.188 21.6455 126.104 21.421 125.936 21.2526C125.767 21.0842 125.571 21 125.346 21H122.175C121.951 21 121.726 21.0842 121.558 21.2526C121.389 21.421 121.305 21.6174 121.305 21.87V42.7774C121.305 43.0299 121.389 43.2264 121.558 43.3948C121.726 43.5631 121.951 43.6473 122.175 43.6473H125.346C125.571 43.6473 125.795 43.5631 125.936 43.3948C126.104 43.2264 126.188 43.0019 126.188 42.7774V37.2488H127.086L130.819 42.9738C131.043 43.3948 131.464 43.6473 131.913 43.6473H135.477C136.01 43.6473 136.235 43.3948 136.347 43.1703C136.488 42.8335 136.46 42.4687 136.263 42.188ZM57.1798 27.7633H53.6157C53.3351 27.7633 53.0825 27.8475 52.8861 28.044C52.7177 28.2124 52.6054 28.4088 52.5493 28.6333L49.9113 38.3994H49.2659L46.4595 28.6333C46.4034 28.4369 46.3192 28.2404 46.1789 28.044C46.0105 27.8475 45.786 27.7353 45.5334 27.7353H41.9132C41.4361 27.7353 41.1555 27.8756 41.0151 28.2123C40.931 28.493 40.931 28.8017 41.0151 29.0823L45.5053 42.8335C45.5895 43.0299 45.6737 43.2544 45.8421 43.3948C46.0105 43.5631 46.263 43.6473 46.5156 43.6473H48.4239L48.2556 44.0963L47.8346 45.3592C47.6943 45.7521 47.4698 46.0889 47.133 46.3414C46.8243 46.5659 46.4595 46.7063 46.0666 46.6782C45.7298 46.6782 45.4211 46.594 45.1124 46.4818C44.8037 46.3414 44.5231 46.1731 44.2705 45.9766C44.046 45.8082 43.7654 45.724 43.4567 45.724H43.4286C43.0919 45.7521 42.7832 45.9205 42.6148 46.2292L41.4922 47.8849C41.0432 48.6146 41.2958 49.0636 41.5764 49.3162C42.1938 49.8775 42.8954 50.2984 43.6812 50.551C44.5512 50.8597 45.4492 51 46.3472 51C47.9749 51 49.322 50.551 50.3603 49.681C51.4268 48.7269 52.2406 47.492 52.6335 46.0889L57.8533 29.0823C57.9656 28.7736 57.9936 28.4649 57.8814 28.1843C57.8533 27.9878 57.6569 27.7633 57.1798 27.7633Z" fill="#9FA4AC"/>
</svg>
