<svg width="112" height="72" viewBox="0 0 112 72" fill="none" xmlns="http://www.w3.org/2000/svg">
<g clip-path="url(#clip0_626_2057)">
<path d="M103.889 59.6447V50.116H105.53V54.9073L109.972 50.116H111.986L108.104 54.2134L112.159 59.6447H110.172L106.983 55.3567L105.529 56.8811V59.6447H103.889ZM1.48652 59.6447H-0.148438V49.2578H3.81382C6.16515 49.2578 7.62918 50.6193 7.62918 52.6738V52.7036C7.62918 54.9894 5.83716 56.1945 3.60874 56.1945H1.48652V59.6447ZM1.48652 50.7647V54.7029H3.66692C5.06477 54.7029 5.96442 53.8985 5.96442 52.7487V52.7189C5.96442 51.4309 5.04513 50.7647 3.66692 50.7647H1.48652ZM9.2954 59.6447V50.116H13.4577C14.6322 50.116 15.5523 50.4702 16.153 51.0687C16.6468 51.5858 16.9268 52.2942 16.9268 53.124C16.9268 54.7167 16.0061 55.6556 14.6991 56.0367L17.2207 59.644H15.2861L12.9915 56.3225H10.9369V59.644L9.2954 59.6447ZM10.9369 54.8396H13.3384C14.5122 54.8396 15.2592 54.2134 15.2592 53.2469C15.2592 52.1989 14.5384 51.6404 13.3246 51.6404H10.9369V54.8396ZM23.2615 59.8084C20.3931 59.8084 18.3923 57.5894 18.3923 54.908C18.3923 52.1996 20.42 49.9531 23.2884 49.9531C26.1568 49.9531 28.1576 52.172 28.1576 54.8534C28.1576 57.5618 26.1299 59.8084 23.2615 59.8084ZM23.2884 58.2702C25.143 58.2702 26.4369 56.7589 26.4369 54.9073C26.4369 53.0287 25.1161 51.4905 23.2615 51.4905C21.4069 51.4905 20.1131 53.0011 20.1131 54.8527C20.1138 56.7313 21.4346 58.2702 23.2884 58.2702ZM33.0923 59.7131L29.21 50.116H31.0246L33.8392 57.4396L36.6407 50.116H38.4153L34.533 59.7131H33.0923ZM39.9768 59.6447V50.116H41.6175V59.6447H39.9768ZM43.9783 59.6447V50.116H47.4599C50.3945 50.116 52.4229 52.1713 52.4229 54.8527C52.4229 57.5618 50.3952 59.6447 47.4599 59.6447H43.9783ZM45.6191 58.1204H47.4599C49.4206 58.1204 50.7014 56.7727 50.7014 54.908C50.7014 53.0156 49.4206 51.6411 47.4599 51.6411H45.6191V58.1204ZM58.1059 59.7945C55.6782 59.7945 54.1305 58.3654 54.1305 55.6018V50.116H55.7713V55.5334C55.7713 57.3029 56.6651 58.2556 58.1328 58.2556C59.5874 58.2556 60.4805 57.3574 60.4805 55.6011V50.1153H62.1213V55.5196C62.1213 58.3654 60.5467 59.7945 58.1059 59.7945ZM67.5097 59.7807C66.0821 59.7807 64.7351 59.2767 63.6144 58.2564L64.6013 57.0585C65.4951 57.8476 66.389 58.2971 67.5497 58.2971C68.5636 58.2971 69.2043 57.8207 69.2043 57.0993C69.2043 56.3916 68.8312 56.0236 67.0966 55.6156C65.109 55.1254 63.9882 54.5269 63.9882 52.7705C63.9882 51.1094 65.3221 49.98 67.1766 49.98C68.5374 49.98 69.6181 50.4018 70.5651 51.1778L69.6851 52.4433C68.8443 51.8033 68.0043 51.4636 67.1505 51.4636C66.1897 51.4636 65.6297 51.9676 65.6297 52.5931C65.6297 53.3553 66.0566 53.6825 67.8443 54.1174C69.8189 54.6076 70.8458 55.3291 70.8458 56.908C70.8451 58.7189 69.4705 59.7807 67.5097 59.7807ZM77.5129 59.6418H72.8474V49.3393H77.3667C78.5246 49.3393 79.4235 49.6644 79.9893 50.2418C80.4279 50.6891 80.6541 51.236 80.6541 51.9182V51.948C80.6541 53.1582 80.041 53.7785 79.0621 54.2978C80.3181 54.7356 81.2257 55.332 81.2257 56.8251V56.8549C81.2257 58.6542 79.7799 59.6418 77.5129 59.6418ZM74.4525 50.8011V53.7516H76.9995C78.1733 53.7516 79.0191 53.2753 79.0191 52.2462V52.2164C79.0191 51.3262 78.3122 50.8011 77.1318 50.8011H74.4525ZM74.4525 55.1393V58.1793H77.5275C78.7762 58.1793 79.5908 57.6724 79.5908 56.6593V56.6294C79.5908 55.6738 78.833 55.1393 77.3958 55.1393H74.4525ZM82.2803 59.6447L86.3895 50.0476H87.9102L92.0194 59.6447H90.2856L89.3386 57.3444H84.9225L83.9625 59.6447H82.2803ZM85.5226 55.8607H88.7379L87.1233 52.0491L85.5226 55.8607ZM93.4842 59.6447V50.116H95.0049L100.007 56.7044V50.116H101.622V59.6447H100.248L95.098 52.8658V59.6447H93.4842Z" fill="#9FA4AC"/>
<path fill-rule="evenodd" clip-rule="evenodd" d="M42.7721 21.3229L45.0303 17.4116H67.0308L67.5952 18.3884L69.289 21.3229H42.7721ZM45.8943 15.9149L48.1547 12H63.9056L66.166 15.9149H45.8943ZM63.9064 37.5541H51.0384C50.7897 37.5541 50.5802 37.6829 50.4661 37.8749L48.8988 40.5899H44.4274L48.1155 34.2022C48.2827 33.912 48.7322 33.6771 49.1184 33.6771L66.142 33.6815L63.9064 37.5541ZM69.2745 28.2567L67.0061 32.1855H47.8747C47.6304 32.1855 47.426 32.3062 47.3096 32.4888L45.7641 35.1651H41.2928L44.9809 28.7782C45.1481 28.488 45.5976 28.2531 45.9838 28.2531L69.2745 28.2567ZM44.7147 26.7608C44.4747 26.7608 44.2652 26.8895 44.151 27.0815L42.6237 29.7265H38.1523L41.8397 23.3404C42.007 23.0502 42.4564 22.8145 42.8426 22.8145L70.1523 22.8204L71.2825 24.7775L70.1378 26.76H44.7372L44.7147 26.7608Z" fill="#687180"/>
</g>
<defs>
<clipPath id="clip0_626_2057">
<rect width="112" height="72" fill="white"/>
</clipPath>
</defs>
</svg>
