<svg width="135" height="72" viewBox="0 0 135 72" fill="none" xmlns="http://www.w3.org/2000/svg">
<path d="M39.9243 31.7603C40.3171 30.5718 40.6899 29.4489 41.0542 28.3352C41.0989 28.1992 41.1902 28.1679 41.3085 28.1462C43.2762 27.7789 45.2517 27.4661 47.2614 27.5655C48.6798 27.6322 50.0433 27.9218 51.2646 28.6833C52.921 29.7141 53.6781 31.2666 53.7857 33.1705C53.8483 34.2651 53.67 35.346 53.5138 36.4177C53.1888 38.6013 52.8543 40.7823 52.5403 42.9662C52.523 43.1526 52.405 43.3149 52.2331 43.3892C50.9521 44.0921 49.5624 44.477 48.1348 44.7107C47.0996 44.8884 46.048 44.9806 44.9983 44.9806C44.2603 44.9806 43.5156 44.9336 42.7845 44.8458C41.3009 44.6594 39.9182 44.1985 38.8413 43.108C37.9624 42.2079 37.4688 40.9963 37.4688 39.7362C37.4688 38.2917 38.1163 36.9224 39.2327 36.0058C40.3368 35.0976 41.6421 34.646 43.0167 34.3538C45.0986 33.9132 47.1994 33.9732 49.3015 34.1335C49.5639 34.1526 49.621 34.0723 49.6335 33.8384C49.7274 32.1986 48.743 31.0208 47.0144 30.7043C45.8152 30.484 44.6377 30.6744 43.4599 30.8675C42.2613 31.0632 41.0737 31.364 39.9255 31.76L39.9246 31.7603H39.9243ZM47.2779 36.707C47.2483 36.7067 47.2156 36.7067 47.1866 36.7067C46.4692 36.7067 45.7514 36.7615 45.0427 36.8711C44.2432 37.007 43.4666 37.2178 42.8222 37.7479C42.0935 38.3477 41.8989 39.1527 42.043 40.0391C42.179 40.8481 42.7448 41.2913 43.4776 41.5525C43.8136 41.6711 44.1635 41.7467 44.518 41.7772C45.8288 41.9036 47.1017 41.6751 48.3661 41.3624C48.5418 41.3395 48.6731 41.1893 48.6731 41.0119C48.6731 41.0105 48.6731 41.0087 48.6731 41.0076C48.8459 39.7225 49.0172 38.4361 49.2076 37.154C49.2404 36.9322 49.1668 36.8902 48.9818 36.8548C48.4197 36.7618 47.8475 36.7116 47.2779 36.7061L47.2782 36.7067L47.2779 36.707Z" fill="#9FA4AC"/>
<path d="M100.628 40.7153C100.411 41.3762 100.221 41.9676 100.019 42.5592C99.8588 43.0447 99.6875 43.5259 99.5353 44.0155C99.5054 44.1686 99.3863 44.2889 99.2332 44.3199C97.1528 44.8747 95.0451 45.175 92.8968 44.9046C90.4491 44.5958 88.426 43.5448 87.1859 41.3C86.423 39.9103 86.1809 38.3969 86.2844 36.8374C86.4815 33.8705 87.7176 31.4107 90.0154 29.5056C91.412 28.347 93.0409 27.7516 94.8332 27.5748C96.0692 27.4536 97.2983 27.4768 98.5045 27.8128C100.96 28.4928 102.597 30.4031 102.911 32.9322C103.092 34.3856 102.911 35.8135 102.676 37.2426C102.648 37.4209 102.558 37.4261 102.422 37.4261C101.763 37.4261 101.102 37.4261 100.442 37.4261C97.2696 37.4261 94.0969 37.4261 90.9242 37.4261C90.6685 37.4261 90.5937 37.4887 90.5897 37.7511C90.5543 39.8886 91.7347 41.3 93.8354 41.6603C95.3883 41.9322 96.8988 41.6968 98.4068 41.3678C99.1593 41.2008 99.904 40.9791 100.629 40.7144L100.629 40.7153H100.628ZM95.0807 34.6509H98.1265C99.0567 34.6509 99.0567 34.6509 99.088 33.7207C99.1518 31.8374 98.0001 30.6097 96.1278 30.5051C93.8885 30.3787 91.7767 32.0008 91.2326 34.4074C91.1877 34.6071 91.2326 34.6561 91.4367 34.6549C92.6481 34.6454 93.8572 34.6509 95.0807 34.6509Z" fill="#9FA4AC"/>
<path d="M108.071 45.3949C106.078 45.3839 104.089 45.0479 102.2 44.4151C102.011 44.3499 101.961 44.2954 102.029 44.0902C102.34 43.149 102.637 42.2028 102.922 41.252C102.993 41.0181 103.076 41.0372 103.263 41.1271C104.571 41.7657 106.009 42.0993 107.465 42.0993C108.022 42.0993 108.581 42.0492 109.128 41.9535C109.595 41.8828 110.04 41.7002 110.423 41.4233C110.811 41.1538 111.044 40.7105 111.044 40.2375C111.044 39.8369 110.877 39.4536 110.583 39.1809C110.237 38.8614 109.849 38.5898 109.43 38.3762C108.39 37.7941 107.332 37.2489 106.343 36.5746C103.688 34.7568 104.011 30.9725 106.626 29.3124C107.785 28.5767 109.053 28.2083 110.401 28.0683C112.647 27.8358 114.819 28.2205 116.959 28.8651C117.155 28.9237 117.205 28.9768 117.131 29.1846C116.808 30.078 116.497 30.9766 116.204 31.881C116.127 32.119 116.035 32.1013 115.851 32.0169C114.56 31.4076 113.147 31.0908 111.719 31.0908C111.668 31.0908 111.616 31.092 111.567 31.092C110.849 31.1096 110.148 31.2279 109.54 31.6523C109.138 31.9091 108.893 32.3541 108.893 32.8321C108.893 32.9718 108.914 33.1112 108.956 33.2446C109.073 33.573 109.294 33.8542 109.585 34.0455C110.215 34.5188 110.935 34.8383 111.625 35.2163C112.467 35.6546 113.275 36.1679 114.032 36.7416C116.272 38.52 116.045 41.9086 113.896 43.6299C112.509 44.738 110.885 45.1813 109.158 45.3389C108.724 45.3772 108.293 45.3842 108.072 45.3949H108.071Z" fill="#9FA4AC"/>
<path d="M123.115 44.9631C121.146 44.9457 119.188 44.6159 117.32 43.9932C117.104 43.921 117.049 43.8573 117.129 43.6288C117.436 42.707 117.727 41.7797 118.01 40.8495C118.078 40.6237 118.146 40.5913 118.366 40.6974C119.675 41.3345 121.116 41.6667 122.572 41.6667C123.117 41.6667 123.665 41.6186 124.202 41.527C124.627 41.4606 125.036 41.3087 125.401 41.0811C126.302 40.506 126.412 39.4494 125.651 38.7097C125.332 38.4233 124.975 38.1775 124.594 37.9821C123.506 37.3647 122.376 36.8128 121.352 36.0785C118.991 34.372 119.284 31.284 120.729 29.734C121.702 28.6911 122.931 28.131 124.295 27.8304C126.105 27.4226 127.913 27.5206 129.721 27.8551C130.482 27.991 131.227 28.1977 131.973 28.3989C132.22 28.4682 132.31 28.5418 132.205 28.8244C131.891 29.6769 131.605 30.539 131.328 31.4078C131.25 31.6458 131.173 31.68 130.939 31.5779C129.645 30.9706 128.229 30.6544 126.799 30.6544C126.771 30.6544 126.743 30.6544 126.715 30.6544C126.036 30.6666 125.379 30.7672 124.786 31.1234C124.224 31.4594 123.94 31.9475 124.024 32.6192C124.077 33.0461 124.335 33.3438 124.658 33.5888C125.338 34.1042 126.12 34.4439 126.859 34.8521C127.703 35.3185 128.535 35.804 129.27 36.4307C131.332 38.1984 131.099 41.4754 129.031 43.1613C127.92 44.0683 126.631 44.5388 125.24 44.782C124.538 44.8953 123.826 44.9585 123.114 44.9637L123.115 44.9631H123.115Z" fill="#9FA4AC"/>
<path d="M69.2472 40.9599C69.1779 41.3677 69.0023 41.7336 68.8733 42.1185C68.6272 42.8513 68.3648 43.5774 68.1213 44.3117C68.0845 44.4621 67.955 44.572 67.8004 44.5836C66.1687 44.8555 64.5193 45.0283 62.8618 44.903C60.3886 44.7166 58.2672 43.8151 56.8095 41.7078C55.7815 40.2227 55.4183 38.5354 55.5096 36.7585C55.6618 33.7942 56.9184 31.3686 59.234 29.511C60.561 28.4478 62.122 27.9257 63.7851 27.708C64.5051 27.6077 65.2339 27.5547 65.9603 27.5547C67.3059 27.5547 68.6495 27.7327 69.9496 28.077C70.3331 28.1817 70.7027 28.3286 71.0795 28.451C71.2155 28.4945 71.2509 28.553 71.2007 28.7011C70.8798 29.6392 70.5618 30.5804 70.2612 31.5254C70.1945 31.7335 70.1009 31.6912 69.9661 31.6381C69.0066 31.2451 67.9868 31.0053 66.954 30.9323C64.7144 30.8059 62.7673 31.4219 61.3695 33.2861C60.0601 35.0334 59.8575 37.9351 61.2594 39.6891C62.131 40.777 63.2813 41.3535 64.6466 41.5124C66.1192 41.6837 67.5427 41.3996 68.9486 40.9958C69.0385 40.97 69.1295 40.9523 69.2208 40.9306L69.2472 40.9602V40.9599Z" fill="#9FA4AC"/>
<path d="M84.7467 40.9341C84.4339 41.8341 84.075 42.7249 83.8179 43.6441C83.6315 44.3146 83.3176 44.6326 82.5859 44.7059C80.5463 44.91 78.5068 45.1384 76.4669 44.5984C73.2594 43.7459 71.1639 41.1869 70.9899 37.8608C70.7995 34.2467 72.1839 31.3587 75.0952 29.2226C76.319 28.3266 77.7467 27.9022 79.237 27.7077C79.9564 27.608 80.6852 27.5547 81.4122 27.5547C82.7578 27.5547 84.0996 27.7312 85.3997 28.0747C85.7722 28.1768 86.1299 28.3289 86.5013 28.4365C86.6958 28.4936 86.701 28.582 86.6372 28.7519C86.3259 29.6615 86.0172 30.5711 85.7276 31.4877C85.6583 31.7065 85.5754 31.6984 85.3971 31.6306C83.9721 31.0868 82.5146 30.7917 80.9768 30.9506C78.3647 31.2306 76.3767 32.9576 75.875 35.499C75.5132 37.3333 75.8451 39.0114 77.307 40.3097C78.4723 41.3431 79.8903 41.6315 81.4012 41.5431C82.465 41.4727 83.5213 41.2706 84.5365 40.9445C84.5977 40.9341 84.6522 40.8839 84.7472 40.9341H84.7467Z" fill="#9FA4AC"/>
<path d="M32.9461 37.196L16.0074 20.2578V22.8577L30.3462 37.196L30.3517 37.2015L17.9316 49.6214L17.9168 49.6063L5.50482 37.196L5.49381 37.1853L11.587 31.0921H8.94219L2.84375 37.1905L2.84926 37.196L17.9113 52.2578L17.9168 52.2523L32.9597 37.2096L32.9461 37.196Z" fill="#687180"/>
<path d="M16.0028 24.6484V27.2483L25.9575 37.2029L17.9378 45.2225L9.91107 37.1973L9.90006 37.1866L15.9933 31.0935H13.3487L7.25 37.1918L7.25551 37.1973L16.6093 46.551L17.9175 47.8592L19.2472 46.5307L28.5656 37.211L16.0028 24.6484Z" fill="#687180"/>
<path d="M24.1756 37.2006L19.2085 32.2281L17.8867 30.9062L16.5869 32.206L11.5938 37.1951L16.5895 42.1907L17.8977 43.4986L19.2248 42.1702L24.1892 37.2139L24.1756 37.2003V37.2006ZM17.9206 40.8721L14.2493 37.2006L14.2383 37.1895L17.9 33.5279L21.5716 37.1991L17.9206 40.8718V40.8721Z" fill="#687180"/>
</svg>
